{
 "cells": [
  {
   "cell_type": "code",
   "execution_count": 1,
   "metadata": {},
   "outputs": [],
   "source": [
    "import mido"
   ]
  },
  {
   "cell_type": "code",
   "execution_count": 2,
   "metadata": {},
   "outputs": [
    {
     "name": "stdout",
     "output_type": "stream",
     "text": [
      "MetaMessage('set_tempo', tempo=500000, time=0)\n",
      "MetaMessage('time_signature', numerator=4, denominator=4, clocks_per_click=24, notated_32nd_notes_per_beat=8, time=0)\n",
      "MetaMessage('end_of_track', time=1)\n",
      "MetaMessage('track_name', name='Composed by Super Piano Music Transformer AI.', time=0)\n",
      "program_change channel=0 program=0 time=0\n",
      "note_on channel=0 note=86 velocity=124 time=312\n",
      "note_on channel=0 note=86 velocity=124 time=0\n",
      "note_on channel=0 note=86 velocity=124 time=0\n",
      "note_on channel=0 note=86 velocity=0 time=308\n",
      "note_on channel=0 note=86 velocity=0 time=0\n",
      "note_on channel=0 note=86 velocity=0 time=0\n",
      "note_on channel=0 note=83 velocity=124 time=5\n",
      "note_on channel=0 note=83 velocity=124 time=0\n",
      "note_on channel=0 note=83 velocity=124 time=0\n",
      "note_on channel=0 note=83 velocity=0 time=308\n",
      "note_on channel=0 note=83 velocity=0 time=0\n",
      "note_on channel=0 note=83 velocity=0 time=0\n",
      "note_on channel=0 note=81 velocity=124 time=4\n",
      "note_on channel=0 note=81 velocity=124 time=0\n",
      "note_on channel=0 note=81 velocity=124 time=0\n",
      "note_on channel=0 note=81 velocity=0 time=308\n",
      "note_on channel=0 note=81 velocity=0 time=0\n",
      "note_on channel=0 note=81 velocity=0 time=0\n",
      "note_on channel=0 note=67 velocity=100 time=5\n",
      "note_on channel=0 note=74 velocity=100 time=0\n",
      "note_on channel=0 note=86 velocity=124 time=0\n",
      "note_on channel=0 note=67 velocity=0 time=154\n",
      "note_on channel=0 note=62 velocity=100 time=4\n",
      "note_on channel=0 note=62 velocity=0 time=154\n",
      "note_on channel=0 note=86 velocity=0 time=0\n",
      "note_on channel=0 note=67 velocity=100 time=4\n",
      "note_on channel=0 note=67 velocity=100 time=0\n",
      "note_on channel=0 note=83 velocity=124 time=0\n",
      "note_on channel=0 note=67 velocity=0 time=154\n",
      "note_on channel=0 note=71 velocity=100 time=5\n",
      "note_on channel=0 note=71 velocity=100 time=0\n",
      "note_on channel=0 note=67 velocity=0 time=154\n",
      "note_on channel=0 note=71 velocity=0 time=0\n",
      "note_on channel=0 note=71 velocity=0 time=0\n",
      "note_on channel=0 note=74 velocity=0 time=0\n",
      "note_on channel=0 note=83 velocity=0 time=0\n",
      "note_on channel=0 note=60 velocity=100 time=4\n",
      "note_on channel=0 note=64 velocity=100 time=0\n",
      "note_on channel=0 note=67 velocity=100 time=0\n",
      "note_on channel=0 note=74 velocity=100 time=0\n",
      "note_on channel=0 note=81 velocity=124 time=0\n",
      "note_on channel=0 note=60 velocity=0 time=308\n",
      "note_on channel=0 note=64 velocity=0 time=0\n",
      "note_on channel=0 note=67 velocity=0 time=0\n",
      "note_on channel=0 note=74 velocity=0 time=0\n",
      "note_on channel=0 note=81 velocity=0 time=0\n",
      "note_on channel=0 note=55 velocity=100 time=5\n",
      "note_on channel=0 note=59 velocity=100 time=0\n",
      "note_on channel=0 note=62 velocity=100 time=0\n",
      "note_on channel=0 note=79 velocity=124 time=0\n",
      "note_on channel=0 note=79 velocity=124 time=0\n",
      "note_on channel=0 note=79 velocity=124 time=0\n",
      "note_on channel=0 note=79 velocity=124 time=0\n",
      "note_on channel=0 note=79 velocity=124 time=0\n",
      "note_on channel=0 note=79 velocity=0 time=308\n",
      "note_on channel=0 note=79 velocity=0 time=0\n",
      "note_on channel=0 note=79 velocity=0 time=0\n",
      "note_on channel=0 note=79 velocity=0 time=0\n",
      "note_on channel=0 note=83 velocity=124 time=4\n",
      "note_on channel=0 note=83 velocity=124 time=0\n",
      "note_on channel=0 note=83 velocity=124 time=0\n",
      "note_on channel=0 note=79 velocity=0 time=308\n",
      "note_on channel=0 note=83 velocity=0 time=0\n",
      "note_on channel=0 note=83 velocity=0 time=0\n",
      "note_on channel=0 note=83 velocity=0 time=0\n",
      "note_on channel=0 note=81 velocity=124 time=4\n",
      "note_on channel=0 note=81 velocity=124 time=0\n",
      "note_on channel=0 note=81 velocity=124 time=0\n",
      "note_on channel=0 note=81 velocity=0 time=308\n",
      "note_on channel=0 note=81 velocity=0 time=0\n",
      "note_on channel=0 note=81 velocity=0 time=0\n",
      "note_on channel=0 note=78 velocity=124 time=5\n",
      "note_on channel=0 note=78 velocity=124 time=0\n",
      "note_on channel=0 note=78 velocity=124 time=0\n",
      "note_on channel=0 note=55 velocity=0 time=308\n",
      "note_on channel=0 note=59 velocity=0 time=0\n",
      "note_on channel=0 note=62 velocity=0 time=0\n",
      "note_on channel=0 note=78 velocity=0 time=0\n",
      "note_on channel=0 note=78 velocity=0 time=0\n",
      "note_on channel=0 note=78 velocity=0 time=0\n",
      "note_on channel=0 note=76 velocity=124 time=4\n",
      "note_on channel=0 note=76 velocity=124 time=0\n",
      "note_on channel=0 note=76 velocity=124 time=0\n",
      "note_on channel=0 note=76 velocity=0 time=308\n",
      "note_on channel=0 note=76 velocity=0 time=0\n",
      "note_on channel=0 note=76 velocity=0 time=0\n",
      "note_on channel=0 note=62 velocity=100 time=5\n",
      "note_on channel=0 note=69 velocity=100 time=0\n",
      "note_on channel=0 note=81 velocity=124 time=0\n",
      "note_on channel=0 note=62 velocity=0 time=154\n",
      "note_on channel=0 note=57 velocity=100 time=4\n",
      "note_on channel=0 note=57 velocity=0 time=154\n",
      "note_on channel=0 note=81 velocity=0 time=0\n",
      "note_on channel=0 note=62 velocity=100 time=4\n",
      "note_on channel=0 note=62 velocity=100 time=0\n",
      "note_on channel=0 note=78 velocity=124 time=0\n",
      "note_on channel=0 note=62 velocity=0 time=154\n",
      "note_on channel=0 note=66 velocity=100 time=5\n",
      "note_on channel=0 note=66 velocity=100 time=0\n",
      "note_on channel=0 note=62 velocity=0 time=154\n",
      "note_on channel=0 note=66 velocity=0 time=0\n",
      "note_on channel=0 note=66 velocity=0 time=0\n",
      "note_on channel=0 note=69 velocity=0 time=0\n",
      "note_on channel=0 note=78 velocity=0 time=0\n",
      "note_on channel=0 note=64 velocity=100 time=4\n",
      "note_on channel=0 note=67 velocity=100 time=0\n",
      "note_on channel=0 note=69 velocity=100 time=0\n",
      "note_on channel=0 note=71 velocity=100 time=0\n",
      "note_on channel=0 note=76 velocity=124 time=0\n",
      "note_on channel=0 note=64 velocity=0 time=308\n",
      "note_on channel=0 note=67 velocity=0 time=0\n",
      "note_on channel=0 note=69 velocity=0 time=0\n",
      "note_on channel=0 note=71 velocity=0 time=0\n",
      "note_on channel=0 note=76 velocity=0 time=0\n",
      "note_on channel=0 note=62 velocity=100 time=5\n",
      "note_on channel=0 note=66 velocity=100 time=0\n",
      "note_on channel=0 note=74 velocity=124 time=0\n",
      "note_on channel=0 note=74 velocity=124 time=0\n",
      "note_on channel=0 note=74 velocity=124 time=0\n",
      "note_on channel=0 note=74 velocity=124 time=0\n",
      "note_on channel=0 note=74 velocity=124 time=0\n",
      "note_on channel=0 note=74 velocity=0 time=308\n",
      "note_on channel=0 note=74 velocity=0 time=0\n",
      "note_on channel=0 note=74 velocity=0 time=0\n",
      "note_on channel=0 note=74 velocity=0 time=0\n",
      "note_on channel=0 note=74 velocity=0 time=312\n",
      "note_on channel=0 note=60 velocity=100 time=4\n",
      "note_on channel=0 note=69 velocity=100 time=0\n",
      "note_on channel=0 note=69 velocity=100 time=0\n",
      "note_on channel=0 note=76 velocity=100 time=0\n",
      "note_on channel=0 note=81 velocity=100 time=0\n",
      "note_on channel=0 note=90 velocity=124 time=0\n",
      "note_on channel=0 note=90 velocity=124 time=0\n",
      "note_on channel=0 note=90 velocity=124 time=0\n",
      "note_on channel=0 note=90 velocity=0 time=308\n",
      "note_on channel=0 note=90 velocity=0 time=0\n",
      "note_on channel=0 note=90 velocity=0 time=0\n",
      "note_on channel=0 note=88 velocity=124 time=5\n",
      "note_on channel=0 note=88 velocity=124 time=0\n",
      "note_on channel=0 note=88 velocity=124 time=0\n",
      "note_on channel=0 note=62 velocity=0 time=308\n",
      "note_on channel=0 note=66 velocity=0 time=0\n",
      "note_on channel=0 note=69 velocity=0 time=0\n",
      "note_on channel=0 note=88 velocity=0 time=0\n",
      "note_on channel=0 note=88 velocity=0 time=0\n",
      "note_on channel=0 note=88 velocity=0 time=0\n",
      "note_on channel=0 note=90 velocity=124 time=4\n",
      "note_on channel=0 note=90 velocity=124 time=0\n",
      "note_on channel=0 note=90 velocity=124 time=0\n",
      "note_on channel=0 note=60 velocity=0 time=308\n",
      "note_on channel=0 note=69 velocity=0 time=0\n",
      "note_on channel=0 note=76 velocity=0 time=0\n",
      "note_on channel=0 note=81 velocity=0 time=0\n",
      "note_on channel=0 note=90 velocity=0 time=0\n",
      "note_on channel=0 note=90 velocity=0 time=0\n",
      "note_on channel=0 note=90 velocity=0 time=0\n",
      "note_on channel=0 note=64 velocity=100 time=5\n",
      "note_on channel=0 note=64 velocity=100 time=0\n",
      "note_on channel=0 note=67 velocity=100 time=0\n",
      "note_on channel=0 note=67 velocity=100 time=0\n",
      "note_on channel=0 note=71 velocity=100 time=0\n",
      "note_on channel=0 note=71 velocity=100 time=0\n",
      "note_on channel=0 note=79 velocity=124 time=0\n",
      "note_on channel=0 note=79 velocity=124 time=0\n",
      "note_on channel=0 note=79 velocity=124 time=0\n",
      "note_on channel=0 note=83 velocity=124 time=0\n",
      "note_on channel=0 note=83 velocity=124 time=0\n",
      "note_on channel=0 note=83 velocity=124 time=0\n",
      "note_on channel=0 note=86 velocity=124 time=0\n",
      "note_on channel=0 note=86 velocity=124 time=0\n",
      "note_on channel=0 note=86 velocity=124 time=0\n",
      "note_on channel=0 note=86 velocity=0 time=308\n",
      "note_on channel=0 note=86 velocity=0 time=0\n",
      "note_on channel=0 note=86 velocity=0 time=0\n",
      "note_on channel=0 note=88 velocity=124 time=158\n",
      "note_on channel=0 note=88 velocity=124 time=0\n",
      "note_on channel=0 note=88 velocity=124 time=0\n",
      "note_on channel=0 note=88 velocity=0 time=154\n",
      "note_on channel=0 note=88 velocity=0 time=0\n",
      "note_on channel=0 note=88 velocity=0 time=0\n",
      "note_on channel=0 note=85 velocity=124 time=4\n",
      "note_on channel=0 note=85 velocity=124 time=0\n",
      "note_on channel=0 note=85 velocity=124 time=0\n",
      "note_on channel=0 note=79 velocity=0 time=308\n",
      "note_on channel=0 note=79 velocity=0 time=0\n",
      "note_on channel=0 note=79 velocity=0 time=0\n",
      "note_on channel=0 note=83 velocity=0 time=0\n",
      "note_on channel=0 note=83 velocity=0 time=0\n",
      "note_on channel=0 note=83 velocity=0 time=0\n",
      "note_on channel=0 note=85 velocity=0 time=0\n",
      "note_on channel=0 note=85 velocity=0 time=0\n",
      "note_on channel=0 note=85 velocity=0 time=0\n",
      "note_on channel=0 note=83 velocity=124 time=5\n",
      "note_on channel=0 note=83 velocity=124 time=0\n",
      "note_on channel=0 note=83 velocity=124 time=0\n",
      "note_on channel=0 note=64 velocity=0 time=308\n",
      "note_on channel=0 note=64 velocity=0 time=0\n",
      "note_on channel=0 note=67 velocity=0 time=0\n",
      "note_on channel=0 note=67 velocity=0 time=0\n",
      "note_on channel=0 note=71 velocity=0 time=0\n",
      "note_on channel=0 note=71 velocity=0 time=0\n",
      "note_on channel=0 note=83 velocity=0 time=0\n",
      "note_on channel=0 note=83 velocity=0 time=0\n",
      "note_on channel=0 note=83 velocity=0 time=0\n",
      "note_on channel=0 note=62 velocity=100 time=4\n",
      "note_on channel=0 note=62 velocity=100 time=0\n",
      "note_on channel=0 note=66 velocity=100 time=0\n",
      "note_on channel=0 note=66 velocity=100 time=0\n",
      "note_on channel=0 note=69 velocity=100 time=0\n",
      "note_on channel=0 note=69 velocity=100 time=0\n",
      "note_on channel=0 note=81 velocity=124 time=0\n",
      "note_on channel=0 note=81 velocity=124 time=0\n",
      "note_on channel=0 note=81 velocity=124 time=0\n",
      "note_on channel=0 note=81 velocity=0 time=154\n",
      "note_on channel=0 note=81 velocity=0 time=0\n",
      "note_on channel=0 note=81 velocity=0 time=0\n",
      "note_on channel=0 note=83 velocity=124 time=5\n",
      "note_on channel=0 note=83 velocity=124 time=0\n",
      "note_on channel=0 note=83 velocity=124 time=0\n",
      "note_on channel=0 note=83 velocity=0 time=154\n",
      "note_on channel=0 note=83 velocity=0 time=0\n",
      "note_on channel=0 note=83 velocity=0 time=0\n",
      "note_on channel=0 note=85 velocity=124 time=4\n",
      "note_on channel=0 note=85 velocity=124 time=0\n",
      "note_on channel=0 note=85 velocity=124 time=0\n",
      "note_on channel=0 note=85 velocity=0 time=154\n",
      "note_on channel=0 note=85 velocity=0 time=0\n",
      "note_on channel=0 note=85 velocity=0 time=0\n",
      "note_on channel=0 note=83 velocity=124 time=4\n",
      "note_on channel=0 note=83 velocity=124 time=0\n",
      "note_on channel=0 note=83 velocity=124 time=0\n",
      "note_on channel=0 note=62 velocity=0 time=154\n",
      "note_on channel=0 note=62 velocity=0 time=0\n",
      "note_on channel=0 note=66 velocity=0 time=0\n",
      "note_on channel=0 note=66 velocity=0 time=0\n",
      "note_on channel=0 note=69 velocity=0 time=0\n",
      "note_on channel=0 note=69 velocity=0 time=0\n",
      "note_on channel=0 note=83 velocity=0 time=0\n",
      "note_on channel=0 note=83 velocity=0 time=0\n",
      "note_on channel=0 note=83 velocity=0 time=0\n",
      "note_on channel=0 note=59 velocity=100 time=5\n",
      "note_on channel=0 note=59 velocity=100 time=0\n",
      "note_on channel=0 note=62 velocity=100 time=0\n",
      "note_on channel=0 note=62 velocity=100 time=0\n",
      "note_on channel=0 note=66 velocity=100 time=0\n",
      "note_on channel=0 note=66 velocity=100 time=0\n",
      "note_on channel=0 note=86 velocity=124 time=0\n",
      "note_on channel=0 note=86 velocity=124 time=0\n",
      "note_on channel=0 note=86 velocity=124 time=0\n",
      "note_on channel=0 note=86 velocity=0 time=308\n",
      "note_on channel=0 note=86 velocity=0 time=0\n",
      "note_on channel=0 note=86 velocity=0 time=0\n",
      "note_on channel=0 note=83 velocity=124 time=158\n",
      "note_on channel=0 note=83 velocity=124 time=0\n",
      "note_on channel=0 note=83 velocity=124 time=0\n",
      "note_on channel=0 note=59 velocity=0 time=154\n",
      "note_on channel=0 note=59 velocity=0 time=0\n",
      "note_on channel=0 note=62 velocity=0 time=0\n",
      "note_on channel=0 note=62 velocity=0 time=0\n",
      "note_on channel=0 note=66 velocity=0 time=0\n",
      "note_on channel=0 note=66 velocity=0 time=0\n",
      "note_on channel=0 note=83 velocity=0 time=0\n",
      "note_on channel=0 note=83 velocity=0 time=0\n",
      "note_on channel=0 note=83 velocity=0 time=0\n",
      "note_on channel=0 note=62 velocity=100 time=5\n",
      "note_on channel=0 note=62 velocity=100 time=0\n",
      "note_on channel=0 note=66 velocity=100 time=0\n",
      "note_on channel=0 note=66 velocity=100 time=0\n",
      "note_on channel=0 note=69 velocity=100 time=0\n",
      "note_on channel=0 note=69 velocity=100 time=0\n",
      "note_on channel=0 note=74 velocity=100 time=0\n",
      "note_on channel=0 note=74 velocity=100 time=0\n",
      "note_on channel=0 note=81 velocity=124 time=0\n",
      "note_on channel=0 note=81 velocity=124 time=0\n",
      "note_on channel=0 note=81 velocity=124 time=0\n",
      "note_on channel=0 note=81 velocity=0 time=154\n",
      "note_on channel=0 note=81 velocity=0 time=0\n",
      "note_on channel=0 note=81 velocity=0 time=0\n",
      "note_on channel=0 note=83 velocity=124 time=4\n",
      "note_on channel=0 note=83 velocity=124 time=0\n",
      "note_on channel=0 note=83 velocity=124 time=0\n",
      "note_on channel=0 note=83 velocity=0 time=154\n",
      "note_on channel=0 note=83 velocity=0 time=0\n",
      "note_on channel=0 note=83 velocity=0 time=0\n",
      "note_on channel=0 note=86 velocity=124 time=4\n",
      "note_on channel=0 note=86 velocity=124 time=0\n",
      "note_on channel=0 note=86 velocity=124 time=0\n",
      "note_on channel=0 note=86 velocity=0 time=154\n",
      "note_on channel=0 note=86 velocity=0 time=0\n",
      "note_on channel=0 note=86 velocity=0 time=0\n",
      "note_on channel=0 note=88 velocity=124 time=5\n",
      "note_on channel=0 note=88 velocity=124 time=0\n",
      "note_on channel=0 note=88 velocity=124 time=0\n",
      "note_on channel=0 note=88 velocity=0 time=154\n",
      "note_on channel=0 note=88 velocity=0 time=0\n",
      "note_on channel=0 note=88 velocity=0 time=0\n",
      "note_on channel=0 note=83 velocity=124 time=4\n",
      "note_on channel=0 note=83 velocity=124 time=0\n",
      "note_on channel=0 note=83 velocity=124 time=0\n",
      "note_on channel=0 note=83 velocity=0 time=154\n",
      "note_on channel=0 note=83 velocity=0 time=0\n",
      "note_on channel=0 note=83 velocity=0 time=0\n",
      "note_on channel=0 note=85 velocity=124 time=5\n",
      "note_on channel=0 note=85 velocity=124 time=0\n",
      "note_on channel=0 note=85 velocity=124 time=0\n",
      "note_on channel=0 note=85 velocity=0 time=154\n",
      "note_on channel=0 note=85 velocity=0 time=0\n",
      "note_on channel=0 note=85 velocity=0 time=0\n",
      "note_on channel=0 note=83 velocity=124 time=4\n",
      "note_on channel=0 note=83 velocity=124 time=0\n",
      "note_on channel=0 note=83 velocity=124 time=0\n",
      "note_on channel=0 note=83 velocity=0 time=154\n",
      "note_on channel=0 note=83 velocity=0 time=0\n",
      "note_on channel=0 note=83 velocity=0 time=0\n",
      "note_on channel=0 note=81 velocity=124 time=4\n",
      "note_on channel=0 note=81 velocity=124 time=0\n",
      "note_on channel=0 note=81 velocity=124 time=0\n",
      "note_on channel=0 note=62 velocity=0 time=154\n",
      "note_on channel=0 note=62 velocity=0 time=0\n",
      "note_on channel=0 note=66 velocity=0 time=0\n",
      "note_on channel=0 note=66 velocity=0 time=0\n",
      "note_on channel=0 note=69 velocity=0 time=0\n",
      "note_on channel=0 note=69 velocity=0 time=0\n",
      "note_on channel=0 note=74 velocity=0 time=0\n",
      "note_on channel=0 note=74 velocity=0 time=0\n",
      "note_on channel=0 note=81 velocity=0 time=0\n",
      "note_on channel=0 note=81 velocity=0 time=0\n",
      "note_on channel=0 note=81 velocity=0 time=0\n",
      "note_on channel=0 note=67 velocity=100 time=5\n",
      "note_on channel=0 note=67 velocity=100 time=0\n",
      "note_on channel=0 note=71 velocity=100 time=0\n",
      "note_on channel=0 note=71 velocity=100 time=0\n",
      "note_on channel=0 note=74 velocity=100 time=0\n",
      "note_on channel=0 note=74 velocity=100 time=0\n",
      "note_on channel=0 note=83 velocity=124 time=312\n",
      "note_on channel=0 note=83 velocity=0 time=154\n",
      "note_on channel=0 note=81 velocity=124 time=5\n",
      "note_on channel=0 note=81 velocity=0 time=154\n",
      "note_on channel=0 note=79 velocity=124 time=4\n",
      "note_on channel=0 note=79 velocity=124 time=0\n",
      "note_on channel=0 note=79 velocity=124 time=0\n",
      "note_on channel=0 note=79 velocity=124 time=0\n",
      "note_on channel=0 note=79 velocity=0 time=308\n",
      "note_on channel=0 note=79 velocity=0 time=0\n",
      "note_on channel=0 note=79 velocity=0 time=0\n",
      "note_on channel=0 note=83 velocity=124 time=4\n",
      "note_on channel=0 note=83 velocity=124 time=0\n",
      "note_on channel=0 note=83 velocity=124 time=0\n",
      "note_on channel=0 note=67 velocity=0 time=308\n",
      "note_on channel=0 note=67 velocity=0 time=0\n",
      "note_on channel=0 note=71 velocity=0 time=0\n",
      "note_on channel=0 note=71 velocity=0 time=0\n",
      "note_on channel=0 note=74 velocity=0 time=0\n",
      "note_on channel=0 note=74 velocity=0 time=0\n",
      "note_on channel=0 note=83 velocity=0 time=0\n",
      "note_on channel=0 note=83 velocity=0 time=0\n",
      "note_on channel=0 note=83 velocity=0 time=0\n",
      "note_on channel=0 note=62 velocity=100 time=5\n",
      "note_on channel=0 note=62 velocity=100 time=0\n",
      "note_on channel=0 note=66 velocity=100 time=0\n",
      "note_on channel=0 note=66 velocity=100 time=0\n",
      "note_on channel=0 note=69 velocity=100 time=0\n",
      "note_on channel=0 note=69 velocity=100 time=0\n",
      "note_on channel=0 note=78 velocity=124 time=0\n",
      "note_on channel=0 note=78 velocity=124 time=0\n",
      "note_on channel=0 note=78 velocity=124 time=0\n",
      "note_on channel=0 note=78 velocity=0 time=308\n",
      "note_on channel=0 note=78 velocity=0 time=0\n",
      "note_on channel=0 note=78 velocity=0 time=0\n",
      "note_on channel=0 note=79 velocity=0 time=0\n",
      "note_on channel=0 note=81 velocity=124 time=4\n",
      "note_on channel=0 note=81 velocity=124 time=0\n",
      "note_on channel=0 note=81 velocity=124 time=0\n",
      "note_on channel=0 note=81 velocity=0 time=308\n",
      "note_on channel=0 note=81 velocity=0 time=0\n",
      "note_on channel=0 note=81 velocity=0 time=0\n",
      "note_on channel=0 note=76 velocity=124 time=5\n",
      "note_on channel=0 note=76 velocity=124 time=0\n",
      "note_on channel=0 note=76 velocity=124 time=0\n",
      "note_on channel=0 note=76 velocity=0 time=308\n",
      "note_on channel=0 note=76 velocity=0 time=0\n",
      "note_on channel=0 note=76 velocity=0 time=0\n",
      "note_on channel=0 note=79 velocity=124 time=4\n",
      "note_on channel=0 note=79 velocity=124 time=0\n",
      "note_on channel=0 note=79 velocity=124 time=0\n",
      "note_on channel=0 note=62 velocity=0 time=308\n",
      "note_on channel=0 note=62 velocity=0 time=0\n",
      "note_on channel=0 note=66 velocity=0 time=0\n",
      "note_on channel=0 note=66 velocity=0 time=0\n",
      "note_on channel=0 note=69 velocity=0 time=0\n",
      "note_on channel=0 note=69 velocity=0 time=0\n",
      "note_on channel=0 note=79 velocity=0 time=0\n",
      "note_on channel=0 note=79 velocity=0 time=0\n",
      "note_on channel=0 note=79 velocity=0 time=0\n",
      "note_on channel=0 note=66 velocity=100 time=4\n",
      "note_on channel=0 note=66 velocity=100 time=0\n",
      "note_on channel=0 note=69 velocity=100 time=154\n",
      "note_on channel=0 note=69 velocity=100 time=0\n",
      "note_on channel=0 note=69 velocity=100 time=0\n",
      "note_on channel=0 note=69 velocity=0 time=154\n",
      "note_on channel=0 note=64 velocity=100 time=5\n",
      "note_on channel=0 note=78 velocity=124 time=0\n",
      "note_on channel=0 note=64 velocity=0 time=154\n",
      "note_on channel=0 note=78 velocity=0 time=0\n",
      "note_on channel=0 note=67 velocity=100 time=4\n",
      "note_on channel=0 note=81 velocity=124 time=0\n",
      "note_on channel=0 note=67 velocity=0 time=154\n",
      "note_on channel=0 note=81 velocity=0 time=0\n",
      "note_on channel=0 note=62 velocity=100 time=5\n",
      "note_on channel=0 note=62 velocity=100 time=0\n",
      "note_on channel=0 note=62 velocity=100 time=0\n",
      "note_on channel=0 note=74 velocity=124 time=0\n",
      "note_on channel=0 note=74 velocity=124 time=0\n",
      "note_on channel=0 note=74 velocity=124 time=0\n",
      "note_on channel=0 note=74 velocity=124 time=0\n",
      "note_on channel=0 note=74 velocity=124 time=0\n",
      "note_on channel=0 note=74 velocity=124 time=0\n",
      "note_on channel=0 note=62 velocity=0 time=154\n",
      "note_on channel=0 note=74 velocity=0 time=466\n",
      "note_on channel=0 note=62 velocity=0 time=620\n",
      "note_on channel=0 note=62 velocity=0 time=0\n",
      "note_on channel=0 note=66 velocity=0 time=0\n",
      "note_on channel=0 note=66 velocity=0 time=0\n",
      "note_on channel=0 note=69 velocity=0 time=0\n",
      "note_on channel=0 note=69 velocity=0 time=0\n",
      "note_on channel=0 note=74 velocity=0 time=0\n",
      "note_on channel=0 note=74 velocity=0 time=0\n",
      "note_on channel=0 note=74 velocity=0 time=0\n",
      "note_on channel=0 note=74 velocity=0 time=0\n",
      "note_on channel=0 note=74 velocity=0 time=0\n",
      "note_on channel=0 note=67 velocity=100 time=625\n",
      "note_on channel=0 note=67 velocity=100 time=0\n",
      "note_on channel=0 note=71 velocity=124 time=154\n",
      "note_on channel=0 note=71 velocity=124 time=0\n",
      "note_on channel=0 note=71 velocity=124 time=0\n",
      "note_on channel=0 note=71 velocity=124 time=0\n",
      "note_on channel=0 note=71 velocity=124 time=0\n",
      "note_on channel=0 note=71 velocity=124 time=0\n",
      "note_on channel=0 note=71 velocity=124 time=0\n",
      "note_on channel=0 note=74 velocity=124 time=621\n",
      "note_on channel=0 note=74 velocity=124 time=0\n",
      "note_on channel=0 note=74 velocity=124 time=0\n",
      "note_on channel=0 note=74 velocity=124 time=0\n",
      "note_on channel=0 note=74 velocity=124 time=0\n",
      "note_on channel=0 note=74 velocity=124 time=0\n",
      "note_on channel=0 note=74 velocity=124 time=0\n",
      "note_on channel=0 note=74 velocity=0 time=154\n",
      "note_on channel=0 note=74 velocity=0 time=0\n",
      "note_on channel=0 note=74 velocity=0 time=0\n",
      "note_on channel=0 note=74 velocity=0 time=0\n",
      "note_on channel=0 note=74 velocity=0 time=0\n",
      "note_on channel=0 note=76 velocity=124 time=4\n",
      "note_on channel=0 note=76 velocity=124 time=0\n",
      "note_on channel=0 note=76 velocity=124 time=0\n",
      "note_on channel=0 note=76 velocity=124 time=0\n",
      "note_on channel=0 note=76 velocity=124 time=0\n",
      "note_on channel=0 note=71 velocity=0 time=154\n",
      "note_on channel=0 note=71 velocity=0 time=0\n",
      "note_on channel=0 note=71 velocity=0 time=0\n",
      "note_on channel=0 note=71 velocity=0 time=0\n",
      "note_on channel=0 note=71 velocity=0 time=0\n",
      "note_on channel=0 note=67 velocity=0 time=154\n",
      "note_on channel=0 note=67 velocity=0 time=0\n",
      "note_on channel=0 note=71 velocity=0 time=0\n",
      "note_on channel=0 note=71 velocity=0 time=0\n",
      "note_on channel=0 note=74 velocity=0 time=0\n",
      "note_on channel=0 note=74 velocity=0 time=0\n",
      "note_on channel=0 note=76 velocity=0 time=0\n",
      "note_on channel=0 note=76 velocity=0 time=0\n",
      "note_on channel=0 note=76 velocity=0 time=0\n",
      "note_on channel=0 note=76 velocity=0 time=0\n",
      "note_on channel=0 note=76 velocity=0 time=0\n",
      "note_on channel=0 note=64 velocity=100 time=4\n",
      "note_on channel=0 note=64 velocity=100 time=0\n",
      "note_on channel=0 note=67 velocity=100 time=0\n",
      "note_on channel=0 note=67 velocity=100 time=0\n",
      "note_on channel=0 note=71 velocity=100 time=0\n",
      "note_on channel=0 note=71 velocity=100 time=0\n",
      "note_on channel=0 note=79 velocity=124 time=0\n",
      "note_on channel=0 note=79 velocity=124 time=0\n",
      "note_on channel=0 note=79 velocity=124 time=0\n",
      "note_on channel=0 note=79 velocity=124 time=0\n",
      "note_on channel=0 note=79 velocity=124 time=0\n",
      "note_on channel=0 note=79 velocity=0 time=462\n",
      "note_on channel=0 note=79 velocity=0 time=0\n",
      "note_on channel=0 note=79 velocity=0 time=0\n",
      "note_on channel=0 note=79 velocity=0 time=0\n",
      "note_on channel=0 note=79 velocity=0 time=0\n",
      "note_on channel=0 note=81 velocity=124 time=5\n",
      "note_on channel=0 note=81 velocity=124 time=0\n",
      "note_on channel=0 note=81 velocity=124 time=0\n",
      "note_on channel=0 note=81 velocity=124 time=0\n",
      "note_on channel=0 note=81 velocity=124 time=0\n",
      "note_on channel=0 note=81 velocity=0 time=154\n",
      "note_on channel=0 note=81 velocity=0 time=0\n",
      "note_on channel=0 note=81 velocity=0 time=0\n",
      "note_on channel=0 note=81 velocity=0 time=0\n",
      "note_on channel=0 note=81 velocity=0 time=0\n",
      "note_on channel=0 note=76 velocity=124 time=4\n",
      "note_on channel=0 note=76 velocity=124 time=0\n",
      "note_on channel=0 note=76 velocity=124 time=0\n",
      "note_on channel=0 note=76 velocity=124 time=0\n",
      "note_on channel=0 note=76 velocity=124 time=0\n",
      "note_on channel=0 note=76 velocity=0 time=154\n",
      "note_on channel=0 note=76 velocity=0 time=0\n",
      "note_on channel=0 note=76 velocity=0 time=0\n",
      "note_on channel=0 note=76 velocity=0 time=0\n",
      "note_on channel=0 note=76 velocity=0 time=0\n",
      "note_on channel=0 note=79 velocity=124 time=5\n",
      "note_on channel=0 note=79 velocity=124 time=0\n",
      "note_on channel=0 note=79 velocity=124 time=0\n",
      "note_on channel=0 note=79 velocity=124 time=0\n",
      "note_on channel=0 note=79 velocity=124 time=0\n",
      "note_on channel=0 note=79 velocity=0 time=154\n",
      "note_on channel=0 note=79 velocity=0 time=0\n",
      "note_on channel=0 note=79 velocity=0 time=0\n",
      "note_on channel=0 note=79 velocity=0 time=0\n",
      "note_on channel=0 note=79 velocity=0 time=0\n",
      "note_on channel=0 note=74 velocity=124 time=4\n",
      "note_on channel=0 note=74 velocity=124 time=0\n",
      "note_on channel=0 note=74 velocity=124 time=0\n",
      "note_on channel=0 note=74 velocity=124 time=0\n",
      "note_on channel=0 note=74 velocity=124 time=0\n",
      "note_on channel=0 note=64 velocity=0 time=308\n",
      "note_on channel=0 note=64 velocity=0 time=0\n",
      "note_on channel=0 note=67 velocity=0 time=0\n",
      "note_on channel=0 note=67 velocity=0 time=0\n",
      "note_on channel=0 note=71 velocity=0 time=0\n",
      "note_on channel=0 note=71 velocity=0 time=0\n",
      "note_on channel=0 note=74 velocity=0 time=0\n",
      "note_on channel=0 note=74 velocity=0 time=0\n",
      "note_on channel=0 note=74 velocity=0 time=0\n",
      "note_on channel=0 note=74 velocity=0 time=0\n",
      "note_on channel=0 note=74 velocity=0 time=0\n",
      "note_on channel=0 note=67 velocity=100 time=4\n",
      "note_on channel=0 note=67 velocity=100 time=0\n",
      "note_on channel=0 note=71 velocity=100 time=0\n",
      "note_on channel=0 note=71 velocity=100 time=0\n",
      "note_on channel=0 note=74 velocity=100 time=0\n",
      "note_on channel=0 note=74 velocity=100 time=0\n",
      "note_on channel=0 note=86 velocity=124 time=0\n",
      "note_on channel=0 note=86 velocity=124 time=0\n",
      "note_on channel=0 note=86 velocity=124 time=0\n",
      "note_on channel=0 note=86 velocity=124 time=0\n",
      "note_on channel=0 note=86 velocity=124 time=0\n",
      "note_on channel=0 note=86 velocity=0 time=462\n",
      "note_on channel=0 note=86 velocity=0 time=0\n",
      "note_on channel=0 note=86 velocity=0 time=0\n",
      "note_on channel=0 note=86 velocity=0 time=0\n",
      "note_on channel=0 note=86 velocity=0 time=0\n",
      "note_on channel=0 note=91 velocity=124 time=5\n",
      "note_on channel=0 note=91 velocity=124 time=0\n",
      "note_on channel=0 note=91 velocity=124 time=0\n",
      "note_on channel=0 note=91 velocity=124 time=0\n",
      "note_on channel=0 note=91 velocity=124 time=0\n",
      "note_on channel=0 note=91 velocity=0 time=154\n",
      "note_on channel=0 note=91 velocity=0 time=0\n",
      "note_on channel=0 note=91 velocity=0 time=0\n",
      "note_on channel=0 note=91 velocity=0 time=0\n",
      "note_on channel=0 note=91 velocity=0 time=0\n",
      "note_on channel=0 note=88 velocity=124 time=4\n",
      "note_on channel=0 note=88 velocity=124 time=0\n",
      "note_on channel=0 note=88 velocity=124 time=0\n",
      "note_on channel=0 note=88 velocity=124 time=0\n",
      "note_on channel=0 note=88 velocity=124 time=0\n",
      "note_on channel=0 note=88 velocity=0 time=154\n",
      "note_on channel=0 note=88 velocity=0 time=0\n",
      "note_on channel=0 note=88 velocity=0 time=0\n",
      "note_on channel=0 note=88 velocity=0 time=0\n",
      "note_on channel=0 note=88 velocity=0 time=0\n",
      "note_on channel=0 note=86 velocity=124 time=5\n",
      "note_on channel=0 note=86 velocity=124 time=0\n",
      "note_on channel=0 note=86 velocity=124 time=0\n",
      "note_on channel=0 note=86 velocity=124 time=0\n",
      "note_on channel=0 note=86 velocity=124 time=0\n",
      "note_on channel=0 note=86 velocity=0 time=154\n",
      "note_on channel=0 note=86 velocity=0 time=0\n",
      "note_on channel=0 note=86 velocity=0 time=0\n",
      "note_on channel=0 note=86 velocity=0 time=0\n",
      "note_on channel=0 note=86 velocity=0 time=0\n",
      "note_on channel=0 note=83 velocity=124 time=4\n",
      "note_on channel=0 note=83 velocity=124 time=0\n",
      "note_on channel=0 note=83 velocity=124 time=0\n",
      "note_on channel=0 note=83 velocity=124 time=0\n",
      "note_on channel=0 note=83 velocity=124 time=0\n",
      "note_on channel=0 note=83 velocity=0 time=154\n",
      "note_on channel=0 note=83 velocity=0 time=0\n",
      "note_on channel=0 note=83 velocity=0 time=0\n",
      "note_on channel=0 note=83 velocity=0 time=0\n",
      "note_on channel=0 note=83 velocity=0 time=0\n",
      "note_on channel=0 note=86 velocity=124 time=4\n",
      "note_on channel=0 note=86 velocity=124 time=0\n",
      "note_on channel=0 note=86 velocity=124 time=0\n",
      "note_on channel=0 note=86 velocity=124 time=0\n",
      "note_on channel=0 note=86 velocity=124 time=0\n",
      "note_on channel=0 note=67 velocity=0 time=154\n",
      "note_on channel=0 note=67 velocity=0 time=0\n",
      "note_on channel=0 note=71 velocity=0 time=0\n",
      "note_on channel=0 note=71 velocity=0 time=0\n",
      "note_on channel=0 note=74 velocity=0 time=0\n",
      "note_on channel=0 note=74 velocity=0 time=0\n",
      "note_on channel=0 note=86 velocity=0 time=0\n",
      "note_on channel=0 note=86 velocity=0 time=0\n",
      "note_on channel=0 note=86 velocity=0 time=0\n",
      "note_on channel=0 note=86 velocity=0 time=0\n",
      "note_on channel=0 note=86 velocity=0 time=0\n",
      "note_on channel=0 note=62 velocity=100 time=5\n",
      "note_on channel=0 note=62 velocity=100 time=0\n",
      "note_on channel=0 note=66 velocity=100 time=0\n",
      "note_on channel=0 note=66 velocity=100 time=0\n",
      "note_on channel=0 note=69 velocity=100 time=0\n",
      "note_on channel=0 note=69 velocity=100 time=0\n",
      "note_on channel=0 note=74 velocity=100 time=0\n",
      "note_on channel=0 note=74 velocity=100 time=0\n",
      "note_on channel=0 note=83 velocity=124 time=312\n",
      "note_on channel=0 note=83 velocity=0 time=154\n",
      "note_on channel=0 note=86 velocity=124 time=5\n",
      "note_on channel=0 note=86 velocity=0 time=154\n",
      "note_on channel=0 note=81 velocity=124 time=4\n",
      "note_on channel=0 note=81 velocity=124 time=0\n",
      "note_on channel=0 note=81 velocity=124 time=0\n",
      "note_on channel=0 note=81 velocity=124 time=0\n",
      "note_on channel=0 note=81 velocity=124 time=0\n",
      "note_on channel=0 note=62 velocity=0 time=616\n",
      "note_on channel=0 note=62 velocity=0 time=0\n",
      "note_on channel=0 note=66 velocity=0 time=0\n",
      "note_on channel=0 note=66 velocity=0 time=0\n",
      "note_on channel=0 note=69 velocity=0 time=0\n",
      "note_on channel=0 note=69 velocity=0 time=0\n",
      "note_on channel=0 note=74 velocity=0 time=0\n",
      "note_on channel=0 note=74 velocity=0 time=0\n",
      "note_on channel=0 note=81 velocity=0 time=0\n",
      "note_on channel=0 note=81 velocity=0 time=0\n",
      "note_on channel=0 note=81 velocity=0 time=0\n",
      "note_on channel=0 note=81 velocity=0 time=0\n",
      "note_on channel=0 note=81 velocity=0 time=0\n",
      "note_on channel=0 note=69 velocity=100 time=4\n",
      "note_on channel=0 note=69 velocity=100 time=0\n",
      "note_on channel=0 note=72 velocity=100 time=0\n",
      "note_on channel=0 note=72 velocity=100 time=0\n",
      "note_on channel=0 note=81 velocity=124 time=0\n",
      "note_on channel=0 note=81 velocity=124 time=0\n",
      "note_on channel=0 note=81 velocity=124 time=0\n",
      "note_on channel=0 note=81 velocity=124 time=0\n",
      "note_on channel=0 note=81 velocity=124 time=0\n",
      "note_on channel=0 note=81 velocity=124 time=0\n",
      "note_on channel=0 note=81 velocity=0 time=308\n",
      "note_on channel=0 note=81 velocity=0 time=154\n",
      "note_on channel=0 note=81 velocity=0 time=0\n",
      "note_on channel=0 note=81 velocity=0 time=0\n",
      "note_on channel=0 note=81 velocity=0 time=0\n",
      "note_on channel=0 note=81 velocity=0 time=0\n",
      "note_on channel=0 note=83 velocity=124 time=5\n",
      "note_on channel=0 note=83 velocity=124 time=0\n",
      "note_on channel=0 note=83 velocity=124 time=0\n",
      "note_on channel=0 note=83 velocity=124 time=0\n",
      "note_on channel=0 note=83 velocity=124 time=0\n",
      "note_on channel=0 note=83 velocity=0 time=154\n",
      "note_on channel=0 note=83 velocity=0 time=0\n",
      "note_on channel=0 note=83 velocity=0 time=0\n",
      "note_on channel=0 note=83 velocity=0 time=0\n",
      "note_on channel=0 note=83 velocity=0 time=0\n",
      "note_on channel=0 note=78 velocity=124 time=4\n",
      "note_on channel=0 note=78 velocity=124 time=0\n",
      "note_on channel=0 note=78 velocity=124 time=0\n",
      "note_on channel=0 note=78 velocity=124 time=0\n",
      "note_on channel=0 note=78 velocity=124 time=0\n",
      "note_on channel=0 note=78 velocity=0 time=308\n",
      "note_on channel=0 note=78 velocity=0 time=0\n",
      "note_on channel=0 note=78 velocity=0 time=0\n",
      "note_on channel=0 note=78 velocity=0 time=0\n",
      "note_on channel=0 note=78 velocity=0 time=0\n",
      "note_on channel=0 note=76 velocity=124 time=5\n",
      "note_on channel=0 note=76 velocity=124 time=0\n",
      "note_on channel=0 note=76 velocity=124 time=0\n",
      "note_on channel=0 note=76 velocity=124 time=0\n",
      "note_on channel=0 note=76 velocity=124 time=0\n",
      "note_on channel=0 note=76 velocity=124 time=0\n",
      "note_on channel=0 note=76 velocity=124 time=0\n",
      "note_on channel=0 note=69 velocity=0 time=308\n",
      "note_on channel=0 note=69 velocity=0 time=0\n",
      "note_on channel=0 note=72 velocity=0 time=0\n",
      "note_on channel=0 note=72 velocity=0 time=0\n",
      "note_on channel=0 note=76 velocity=0 time=0\n",
      "note_on channel=0 note=76 velocity=0 time=0\n",
      "note_on channel=0 note=76 velocity=0 time=0\n",
      "note_on channel=0 note=76 velocity=0 time=0\n",
      "note_on channel=0 note=76 velocity=0 time=0\n",
      "note_on channel=0 note=76 velocity=0 time=0\n",
      "note_on channel=0 note=76 velocity=0 time=0\n",
      "note_on channel=0 note=59 velocity=100 time=4\n",
      "note_on channel=0 note=59 velocity=100 time=0\n",
      "note_on channel=0 note=62 velocity=100 time=0\n",
      "note_on channel=0 note=62 velocity=100 time=0\n",
      "note_on channel=0 note=66 velocity=100 time=0\n",
      "note_on channel=0 note=66 velocity=100 time=0\n",
      "note_on channel=0 note=74 velocity=124 time=0\n",
      "note_on channel=0 note=74 velocity=124 time=0\n",
      "note_on channel=0 note=74 velocity=124 time=0\n",
      "note_on channel=0 note=74 velocity=124 time=0\n",
      "note_on channel=0 note=74 velocity=124 time=0\n",
      "note_on channel=0 note=74 velocity=0 time=462\n",
      "note_on channel=0 note=74 velocity=0 time=0\n",
      "note_on channel=0 note=74 velocity=0 time=0\n",
      "note_on channel=0 note=74 velocity=0 time=0\n",
      "note_on channel=0 note=74 velocity=0 time=0\n",
      "note_on channel=0 note=76 velocity=124 time=4\n",
      "note_on channel=0 note=76 velocity=124 time=0\n",
      "note_on channel=0 note=76 velocity=124 time=0\n",
      "note_on channel=0 note=76 velocity=124 time=0\n",
      "note_on channel=0 note=76 velocity=124 time=0\n",
      "note_on channel=0 note=76 velocity=0 time=154\n",
      "note_on channel=0 note=76 velocity=0 time=0\n",
      "note_on channel=0 note=76 velocity=0 time=0\n",
      "note_on channel=0 note=76 velocity=0 time=0\n",
      "note_on channel=0 note=76 velocity=0 time=0\n",
      "note_on channel=0 note=79 velocity=124 time=5\n",
      "note_on channel=0 note=79 velocity=124 time=0\n",
      "note_on channel=0 note=79 velocity=124 time=0\n",
      "note_on channel=0 note=79 velocity=124 time=0\n",
      "note_on channel=0 note=79 velocity=124 time=0\n",
      "note_on channel=0 note=79 velocity=0 time=308\n",
      "note_on channel=0 note=79 velocity=0 time=0\n",
      "note_on channel=0 note=79 velocity=0 time=0\n",
      "note_on channel=0 note=79 velocity=0 time=0\n",
      "note_on channel=0 note=79 velocity=0 time=0\n",
      "note_on channel=0 note=81 velocity=124 time=4\n",
      "note_on channel=0 note=81 velocity=124 time=0\n",
      "note_on channel=0 note=81 velocity=124 time=0\n",
      "note_on channel=0 note=81 velocity=124 time=0\n",
      "note_on channel=0 note=81 velocity=124 time=0\n",
      "note_on channel=0 note=59 velocity=0 time=308\n",
      "note_on channel=0 note=59 velocity=0 time=0\n",
      "note_on channel=0 note=62 velocity=0 time=0\n",
      "note_on channel=0 note=62 velocity=0 time=0\n",
      "note_on channel=0 note=66 velocity=0 time=0\n",
      "note_on channel=0 note=66 velocity=0 time=0\n",
      "note_on channel=0 note=81 velocity=0 time=0\n",
      "note_on channel=0 note=81 velocity=0 time=0\n",
      "note_on channel=0 note=81 velocity=0 time=0\n",
      "note_on channel=0 note=81 velocity=0 time=0\n",
      "note_on channel=0 note=81 velocity=0 time=0\n",
      "note_on channel=0 note=69 velocity=100 time=5\n",
      "note_on channel=0 note=69 velocity=100 time=0\n",
      "note_on channel=0 note=71 velocity=124 time=0\n",
      "note_on channel=0 note=71 velocity=124 time=0\n",
      "note_on channel=0 note=71 velocity=124 time=0\n",
      "note_on channel=0 note=71 velocity=124 time=0\n",
      "note_on channel=0 note=71 velocity=124 time=0\n",
      "note_on channel=0 note=72 velocity=100 time=0\n",
      "note_on channel=0 note=72 velocity=100 time=0\n",
      "note_on channel=0 note=71 velocity=0 time=308\n",
      "note_on channel=0 note=71 velocity=0 time=0\n",
      "note_on channel=0 note=71 velocity=0 time=0\n",
      "note_on channel=0 note=71 velocity=0 time=0\n",
      "note_on channel=0 note=71 velocity=0 time=0\n",
      "note_on channel=0 note=79 velocity=124 time=4\n",
      "note_on channel=0 note=79 velocity=124 time=0\n",
      "note_on channel=0 note=79 velocity=124 time=0\n",
      "note_on channel=0 note=79 velocity=124 time=0\n",
      "note_on channel=0 note=79 velocity=124 time=0\n",
      "note_on channel=0 note=79 velocity=0 time=308\n",
      "note_on channel=0 note=79 velocity=0 time=0\n",
      "note_on channel=0 note=79 velocity=0 time=0\n",
      "note_on channel=0 note=79 velocity=0 time=0\n",
      "note_on channel=0 note=79 velocity=0 time=0\n",
      "note_on channel=0 note=76 velocity=124 time=4\n",
      "note_on channel=0 note=76 velocity=124 time=0\n",
      "note_on channel=0 note=76 velocity=124 time=0\n",
      "note_on channel=0 note=76 velocity=124 time=0\n",
      "note_on channel=0 note=76 velocity=124 time=0\n",
      "note_on channel=0 note=76 velocity=0 time=154\n",
      "note_on channel=0 note=76 velocity=0 time=0\n",
      "note_on channel=0 note=76 velocity=0 time=0\n",
      "note_on channel=0 note=76 velocity=0 time=0\n",
      "note_on channel=0 note=76 velocity=0 time=0\n",
      "note_on channel=0 note=74 velocity=124 time=5\n",
      "note_on channel=0 note=74 velocity=124 time=0\n",
      "note_on channel=0 note=74 velocity=124 time=0\n",
      "note_on channel=0 note=74 velocity=124 time=0\n",
      "note_on channel=0 note=74 velocity=124 time=0\n",
      "note_on channel=0 note=74 velocity=0 time=154\n",
      "note_on channel=0 note=74 velocity=0 time=0\n",
      "note_on channel=0 note=74 velocity=0 time=0\n",
      "note_on channel=0 note=74 velocity=0 time=0\n",
      "note_on channel=0 note=74 velocity=0 time=0\n",
      "note_on channel=0 note=76 velocity=124 time=4\n",
      "note_on channel=0 note=76 velocity=124 time=0\n",
      "note_on channel=0 note=76 velocity=124 time=0\n",
      "note_on channel=0 note=76 velocity=124 time=0\n",
      "note_on channel=0 note=76 velocity=124 time=0\n",
      "note_on channel=0 note=76 velocity=124 time=0\n",
      "note_on channel=0 note=76 velocity=124 time=0\n",
      "note_on channel=0 note=76 velocity=0 time=154\n",
      "note_on channel=0 note=76 velocity=0 time=0\n",
      "note_on channel=0 note=76 velocity=0 time=0\n",
      "note_on channel=0 note=76 velocity=0 time=0\n",
      "note_on channel=0 note=76 velocity=0 time=0\n",
      "note_on channel=0 note=79 velocity=124 time=5\n",
      "note_on channel=0 note=79 velocity=124 time=0\n",
      "note_on channel=0 note=79 velocity=124 time=0\n",
      "note_on channel=0 note=79 velocity=124 time=0\n",
      "note_on channel=0 note=79 velocity=124 time=0\n",
      "note_on channel=0 note=69 velocity=0 time=154\n",
      "note_on channel=0 note=69 velocity=0 time=0\n",
      "note_on channel=0 note=72 velocity=0 time=0\n",
      "note_on channel=0 note=72 velocity=0 time=0\n",
      "note_on channel=0 note=76 velocity=0 time=0\n",
      "note_on channel=0 note=76 velocity=0 time=0\n",
      "note_on channel=0 note=79 velocity=0 time=0\n",
      "note_on channel=0 note=79 velocity=0 time=0\n",
      "note_on channel=0 note=79 velocity=0 time=0\n",
      "note_on channel=0 note=79 velocity=0 time=0\n",
      "note_on channel=0 note=79 velocity=0 time=0\n",
      "note_on channel=0 note=62 velocity=100 time=4\n",
      "note_on channel=0 note=62 velocity=100 time=0\n",
      "note_on channel=0 note=66 velocity=100 time=0\n",
      "note_on channel=0 note=66 velocity=100 time=0\n",
      "note_on channel=0 note=69 velocity=100 time=0\n",
      "note_on channel=0 note=69 velocity=100 time=0\n",
      "note_on channel=0 note=76 velocity=124 time=312\n",
      "note_on channel=0 note=76 velocity=0 time=154\n",
      "note_on channel=0 note=79 velocity=124 time=5\n",
      "note_on channel=0 note=79 velocity=0 time=154\n",
      "note_on channel=0 note=74 velocity=124 time=4\n",
      "note_on channel=0 note=74 velocity=124 time=0\n",
      "note_on channel=0 note=74 velocity=124 time=0\n",
      "note_on channel=0 note=74 velocity=124 time=0\n",
      "note_on channel=0 note=74 velocity=124 time=0\n",
      "note_on channel=0 note=74 velocity=124 time=0\n",
      "note_on channel=0 note=74 velocity=124 time=0\n",
      "note_on channel=0 note=62 velocity=0 time=616\n",
      "note_on channel=0 note=62 velocity=0 time=0\n",
      "note_on channel=0 note=66 velocity=0 time=0\n",
      "note_on channel=0 note=66 velocity=0 time=0\n",
      "note_on channel=0 note=69 velocity=0 time=0\n",
      "note_on channel=0 note=69 velocity=0 time=0\n",
      "note_on channel=0 note=74 velocity=0 time=0\n",
      "note_on channel=0 note=74 velocity=0 time=0\n",
      "note_on channel=0 note=74 velocity=0 time=0\n",
      "note_on channel=0 note=74 velocity=0 time=0\n",
      "note_on channel=0 note=74 velocity=0 time=0\n",
      "note_on channel=0 note=74 velocity=0 time=0\n",
      "note_on channel=0 note=74 velocity=0 time=0\n",
      "note_on channel=0 note=67 velocity=100 time=5\n",
      "note_on channel=0 note=67 velocity=100 time=0\n",
      "note_on channel=0 note=71 velocity=100 time=0\n",
      "note_on channel=0 note=71 velocity=100 time=0\n",
      "note_on channel=0 note=74 velocity=100 time=0\n",
      "note_on channel=0 note=74 velocity=100 time=0\n",
      "note_on channel=0 note=74 velocity=100 time=0\n",
      "note_on channel=0 note=83 velocity=124 time=0\n",
      "note_on channel=0 note=83 velocity=124 time=0\n",
      "note_on channel=0 note=83 velocity=124 time=0\n",
      "note_on channel=0 note=83 velocity=124 time=0\n",
      "note_on channel=0 note=83 velocity=124 time=0\n",
      "note_on channel=0 note=74 velocity=0 time=308\n",
      "note_on channel=0 note=83 velocity=0 time=154\n",
      "note_on channel=0 note=83 velocity=0 time=0\n",
      "note_on channel=0 note=83 velocity=0 time=0\n",
      "note_on channel=0 note=83 velocity=0 time=0\n",
      "note_on channel=0 note=83 velocity=0 time=0\n",
      "note_on channel=0 note=86 velocity=124 time=4\n",
      "note_on channel=0 note=86 velocity=124 time=0\n",
      "note_on channel=0 note=86 velocity=124 time=0\n",
      "note_on channel=0 note=86 velocity=124 time=0\n",
      "note_on channel=0 note=86 velocity=124 time=0\n",
      "note_on channel=0 note=67 velocity=0 time=154\n",
      "note_on channel=0 note=67 velocity=0 time=0\n",
      "note_on channel=0 note=71 velocity=0 time=0\n",
      "note_on channel=0 note=71 velocity=0 time=0\n",
      "note_on channel=0 note=74 velocity=0 time=0\n",
      "note_on channel=0 note=74 velocity=0 time=0\n",
      "note_on channel=0 note=86 velocity=0 time=0\n",
      "note_on channel=0 note=86 velocity=0 time=0\n",
      "note_on channel=0 note=86 velocity=0 time=0\n",
      "note_on channel=0 note=86 velocity=0 time=0\n",
      "note_on channel=0 note=86 velocity=0 time=0\n",
      "note_on channel=0 note=59 velocity=100 time=4\n",
      "note_on channel=0 note=59 velocity=100 time=0\n",
      "note_on channel=0 note=62 velocity=100 time=0\n",
      "note_on channel=0 note=62 velocity=100 time=0\n",
      "note_on channel=0 note=66 velocity=100 time=0\n",
      "note_on channel=0 note=66 velocity=100 time=0\n",
      "note_on channel=0 note=78 velocity=124 time=0\n",
      "note_on channel=0 note=78 velocity=124 time=0\n",
      "note_on channel=0 note=78 velocity=124 time=0\n",
      "note_on channel=0 note=78 velocity=124 time=0\n",
      "note_on channel=0 note=78 velocity=124 time=0\n",
      "note_on channel=0 note=78 velocity=0 time=308\n",
      "note_on channel=0 note=78 velocity=0 time=0\n",
      "note_on channel=0 note=78 velocity=0 time=0\n",
      "note_on channel=0 note=78 velocity=0 time=0\n",
      "note_on channel=0 note=78 velocity=0 time=0\n",
      "note_on channel=0 note=81 velocity=124 time=5\n",
      "note_on channel=0 note=81 velocity=124 time=0\n",
      "note_on channel=0 note=81 velocity=124 time=0\n",
      "note_on channel=0 note=81 velocity=124 time=0\n",
      "note_on channel=0 note=81 velocity=124 time=0\n",
      "note_on channel=0 note=59 velocity=0 time=308\n",
      "note_on channel=0 note=59 velocity=0 time=0\n",
      "note_on channel=0 note=62 velocity=0 time=0\n",
      "note_on channel=0 note=62 velocity=0 time=0\n",
      "note_on channel=0 note=66 velocity=0 time=0\n",
      "note_on channel=0 note=66 velocity=0 time=0\n",
      "note_on channel=0 note=81 velocity=0 time=0\n",
      "note_on channel=0 note=81 velocity=0 time=0\n",
      "note_on channel=0 note=81 velocity=0 time=0\n",
      "note_on channel=0 note=81 velocity=0 time=0\n",
      "note_on channel=0 note=81 velocity=0 time=0\n",
      "note_on channel=0 note=64 velocity=100 time=4\n",
      "note_on channel=0 note=64 velocity=100 time=0\n",
      "note_on channel=0 note=67 velocity=100 time=0\n",
      "note_on channel=0 note=67 velocity=100 time=0\n",
      "note_on channel=0 note=71 velocity=100 time=0\n",
      "note_on channel=0 note=71 velocity=100 time=0\n",
      "note_on channel=0 note=76 velocity=124 time=0\n",
      "note_on channel=0 note=76 velocity=124 time=0\n",
      "note_on channel=0 note=76 velocity=124 time=0\n",
      "note_on channel=0 note=76 velocity=124 time=0\n",
      "note_on channel=0 note=76 velocity=124 time=0\n",
      "note_on channel=0 note=76 velocity=0 time=154\n",
      "note_on channel=0 note=76 velocity=0 time=0\n",
      "note_on channel=0 note=76 velocity=0 time=0\n",
      "note_on channel=0 note=76 velocity=0 time=0\n",
      "note_on channel=0 note=76 velocity=0 time=0\n",
      "note_on channel=0 note=79 velocity=124 time=5\n",
      "note_on channel=0 note=79 velocity=124 time=0\n",
      "note_on channel=0 note=79 velocity=124 time=0\n",
      "note_on channel=0 note=79 velocity=124 time=0\n",
      "note_on channel=0 note=79 velocity=124 time=0\n",
      "note_on channel=0 note=79 velocity=0 time=154\n",
      "note_on channel=0 note=79 velocity=0 time=0\n",
      "note_on channel=0 note=79 velocity=0 time=0\n",
      "note_on channel=0 note=79 velocity=0 time=0\n",
      "note_on channel=0 note=79 velocity=0 time=0\n",
      "note_on channel=0 note=76 velocity=124 time=316\n",
      "note_on channel=0 note=76 velocity=0 time=154\n",
      "note_on channel=0 note=79 velocity=124 time=5\n",
      "note_on channel=0 note=79 velocity=0 time=154\n",
      "note_on channel=0 note=74 velocity=124 time=4\n",
      "note_on channel=0 note=74 velocity=124 time=0\n",
      "note_on channel=0 note=74 velocity=124 time=0\n",
      "note_on channel=0 note=74 velocity=124 time=0\n",
      "note_on channel=0 note=74 velocity=124 time=0\n",
      "note_on channel=0 note=64 velocity=0 time=308\n",
      "note_on channel=0 note=64 velocity=0 time=0\n",
      "note_on channel=0 note=67 velocity=0 time=0\n",
      "note_on channel=0 note=67 velocity=0 time=0\n",
      "note_on channel=0 note=71 velocity=0 time=0\n",
      "note_on channel=0 note=71 velocity=0 time=0\n",
      "note_on channel=0 note=74 velocity=0 time=0\n",
      "note_on channel=0 note=74 velocity=0 time=0\n",
      "note_on channel=0 note=74 velocity=0 time=0\n",
      "note_on channel=0 note=74 velocity=0 time=0\n",
      "note_on channel=0 note=74 velocity=0 time=0\n",
      "note_on channel=0 note=59 velocity=100 time=5\n",
      "note_on channel=0 note=59 velocity=100 time=0\n",
      "note_on channel=0 note=62 velocity=100 time=0\n",
      "note_on channel=0 note=62 velocity=100 time=0\n",
      "note_on channel=0 note=66 velocity=100 time=0\n",
      "note_on channel=0 note=66 velocity=100 time=0\n",
      "note_on channel=0 note=71 velocity=124 time=0\n",
      "note_on channel=0 note=71 velocity=124 time=0\n",
      "note_on channel=0 note=71 velocity=124 time=0\n",
      "note_on channel=0 note=71 velocity=124 time=0\n",
      "note_on channel=0 note=71 velocity=124 time=0\n",
      "note_on channel=0 note=71 velocity=0 time=154\n",
      "note_on channel=0 note=71 velocity=0 time=0\n",
      "note_on channel=0 note=71 velocity=0 time=0\n",
      "note_on channel=0 note=71 velocity=0 time=0\n",
      "note_on channel=0 note=71 velocity=0 time=0\n",
      "note_on channel=0 note=74 velocity=124 time=4\n",
      "note_on channel=0 note=74 velocity=124 time=0\n",
      "note_on channel=0 note=74 velocity=124 time=0\n",
      "note_on channel=0 note=74 velocity=124 time=0\n",
      "note_on channel=0 note=74 velocity=124 time=0\n",
      "note_on channel=0 note=74 velocity=124 time=0\n",
      "note_on channel=0 note=74 velocity=0 time=308\n",
      "note_on channel=0 note=74 velocity=0 time=0\n",
      "note_on channel=0 note=74 velocity=0 time=0\n",
      "note_on channel=0 note=74 velocity=0 time=0\n",
      "note_on channel=0 note=74 velocity=0 time=0\n",
      "note_on channel=0 note=71 velocity=124 time=4\n",
      "note_on channel=0 note=71 velocity=124 time=0\n",
      "note_on channel=0 note=71 velocity=124 time=0\n",
      "note_on channel=0 note=71 velocity=124 time=0\n",
      "note_on channel=0 note=71 velocity=124 time=0\n",
      "note_on channel=0 note=71 velocity=0 time=154\n",
      "note_on channel=0 note=71 velocity=0 time=0\n",
      "note_on channel=0 note=71 velocity=0 time=0\n",
      "note_on channel=0 note=71 velocity=0 time=0\n",
      "note_on channel=0 note=71 velocity=0 time=0\n",
      "note_on channel=0 note=74 velocity=0 time=0\n",
      "note_on channel=0 note=74 velocity=124 time=5\n",
      "note_on channel=0 note=74 velocity=124 time=0\n",
      "note_on channel=0 note=74 velocity=124 time=0\n",
      "note_on channel=0 note=74 velocity=124 time=0\n",
      "note_on channel=0 note=74 velocity=124 time=0\n",
      "note_on channel=0 note=74 velocity=0 time=154\n",
      "note_on channel=0 note=74 velocity=0 time=0\n",
      "note_on channel=0 note=74 velocity=0 time=0\n",
      "note_on channel=0 note=74 velocity=0 time=0\n",
      "note_on channel=0 note=74 velocity=0 time=0\n",
      "note_on channel=0 note=76 velocity=124 time=4\n",
      "note_on channel=0 note=76 velocity=124 time=0\n",
      "note_on channel=0 note=76 velocity=124 time=0\n",
      "note_on channel=0 note=76 velocity=124 time=0\n",
      "note_on channel=0 note=76 velocity=124 time=0\n",
      "note_on channel=0 note=76 velocity=0 time=154\n",
      "note_on channel=0 note=76 velocity=0 time=0\n",
      "note_on channel=0 note=76 velocity=0 time=0\n",
      "note_on channel=0 note=76 velocity=0 time=0\n",
      "note_on channel=0 note=76 velocity=0 time=0\n",
      "note_on channel=0 note=78 velocity=124 time=5\n",
      "note_on channel=0 note=78 velocity=124 time=0\n",
      "note_on channel=0 note=78 velocity=124 time=0\n",
      "note_on channel=0 note=78 velocity=124 time=0\n",
      "note_on channel=0 note=78 velocity=124 time=0\n",
      "note_on channel=0 note=78 velocity=0 time=154\n",
      "note_on channel=0 note=78 velocity=0 time=0\n",
      "note_on channel=0 note=78 velocity=0 time=0\n",
      "note_on channel=0 note=78 velocity=0 time=0\n",
      "note_on channel=0 note=78 velocity=0 time=0\n",
      "note_on channel=0 note=81 velocity=124 time=4\n",
      "note_on channel=0 note=81 velocity=124 time=0\n",
      "note_on channel=0 note=81 velocity=124 time=0\n",
      "note_on channel=0 note=81 velocity=124 time=0\n",
      "note_on channel=0 note=81 velocity=124 time=0\n",
      "note_on channel=0 note=59 velocity=0 time=154\n",
      "note_on channel=0 note=59 velocity=0 time=0\n",
      "note_on channel=0 note=62 velocity=0 time=0\n",
      "note_on channel=0 note=62 velocity=0 time=0\n",
      "note_on channel=0 note=66 velocity=0 time=0\n",
      "note_on channel=0 note=66 velocity=0 time=0\n",
      "note_on channel=0 note=81 velocity=0 time=0\n",
      "note_on channel=0 note=81 velocity=0 time=0\n",
      "note_on channel=0 note=81 velocity=0 time=0\n",
      "note_on channel=0 note=81 velocity=0 time=0\n",
      "note_on channel=0 note=81 velocity=0 time=0\n",
      "note_on channel=0 note=64 velocity=100 time=4\n",
      "note_on channel=0 note=64 velocity=100 time=0\n",
      "note_on channel=0 note=67 velocity=100 time=0\n",
      "note_on channel=0 note=67 velocity=100 time=0\n",
      "note_on channel=0 note=71 velocity=100 time=0\n",
      "note_on channel=0 note=71 velocity=100 time=0\n",
      "note_on channel=0 note=76 velocity=124 time=0\n",
      "note_on channel=0 note=76 velocity=124 time=0\n",
      "note_on channel=0 note=76 velocity=124 time=0\n",
      "note_on channel=0 note=76 velocity=124 time=0\n",
      "note_on channel=0 note=76 velocity=124 time=0\n",
      "note_on channel=0 note=76 velocity=0 time=929\n",
      "note_on channel=0 note=76 velocity=0 time=0\n",
      "note_on channel=0 note=76 velocity=0 time=0\n",
      "note_on channel=0 note=76 velocity=0 time=0\n",
      "note_on channel=0 note=76 velocity=0 time=0\n",
      "note_on channel=0 note=74 velocity=124 time=4\n",
      "note_on channel=0 note=74 velocity=124 time=0\n",
      "note_on channel=0 note=74 velocity=124 time=0\n",
      "note_on channel=0 note=74 velocity=124 time=0\n",
      "note_on channel=0 note=74 velocity=124 time=0\n",
      "note_on channel=0 note=74 velocity=0 time=154\n",
      "note_on channel=0 note=74 velocity=0 time=0\n",
      "note_on channel=0 note=74 velocity=0 time=0\n",
      "note_on channel=0 note=74 velocity=0 time=0\n",
      "note_on channel=0 note=74 velocity=0 time=0\n",
      "note_on channel=0 note=76 velocity=124 time=5\n",
      "note_on channel=0 note=76 velocity=124 time=0\n",
      "note_on channel=0 note=76 velocity=124 time=0\n",
      "note_on channel=0 note=76 velocity=124 time=0\n",
      "note_on channel=0 note=76 velocity=124 time=0\n",
      "note_on channel=0 note=64 velocity=0 time=154\n",
      "note_on channel=0 note=64 velocity=0 time=0\n",
      "note_on channel=0 note=67 velocity=0 time=0\n",
      "note_on channel=0 note=67 velocity=0 time=0\n",
      "note_on channel=0 note=71 velocity=0 time=0\n",
      "note_on channel=0 note=71 velocity=0 time=0\n",
      "note_on channel=0 note=76 velocity=0 time=0\n",
      "note_on channel=0 note=76 velocity=0 time=0\n",
      "note_on channel=0 note=76 velocity=0 time=0\n",
      "note_on channel=0 note=76 velocity=0 time=0\n",
      "note_on channel=0 note=76 velocity=0 time=0\n",
      "note_on channel=0 note=67 velocity=100 time=4\n",
      "note_on channel=0 note=67 velocity=100 time=0\n",
      "note_on channel=0 note=71 velocity=100 time=0\n",
      "note_on channel=0 note=71 velocity=100 time=0\n",
      "note_on channel=0 note=74 velocity=100 time=0\n",
      "note_on channel=0 note=74 velocity=100 time=0\n",
      "note_on channel=0 note=79 velocity=124 time=0\n",
      "note_on channel=0 note=79 velocity=124 time=0\n",
      "note_on channel=0 note=79 velocity=124 time=0\n",
      "note_on channel=0 note=79 velocity=124 time=0\n",
      "note_on channel=0 note=79 velocity=124 time=0\n",
      "note_on channel=0 note=79 velocity=0 time=462\n",
      "note_on channel=0 note=79 velocity=0 time=0\n",
      "note_on channel=0 note=79 velocity=0 time=0\n",
      "note_on channel=0 note=79 velocity=0 time=0\n",
      "note_on channel=0 note=79 velocity=0 time=0\n",
      "note_on channel=0 note=81 velocity=124 time=4\n",
      "note_on channel=0 note=81 velocity=124 time=0\n",
      "note_on channel=0 note=81 velocity=124 time=0\n",
      "note_on channel=0 note=81 velocity=124 time=0\n",
      "note_on channel=0 note=81 velocity=124 time=0\n",
      "note_on channel=0 note=81 velocity=0 time=154\n",
      "note_on channel=0 note=81 velocity=0 time=0\n",
      "note_on channel=0 note=81 velocity=0 time=0\n",
      "note_on channel=0 note=81 velocity=0 time=0\n",
      "note_on channel=0 note=81 velocity=0 time=0\n",
      "note_on channel=0 note=86 velocity=124 time=5\n",
      "note_on channel=0 note=86 velocity=124 time=0\n",
      "note_on channel=0 note=86 velocity=124 time=0\n",
      "note_on channel=0 note=86 velocity=124 time=0\n",
      "note_on channel=0 note=86 velocity=124 time=0\n",
      "note_on channel=0 note=86 velocity=0 time=308\n",
      "note_on channel=0 note=86 velocity=0 time=0\n",
      "note_on channel=0 note=86 velocity=0 time=0\n",
      "note_on channel=0 note=86 velocity=0 time=0\n",
      "note_on channel=0 note=86 velocity=0 time=0\n",
      "note_on channel=0 note=83 velocity=124 time=4\n",
      "note_on channel=0 note=83 velocity=124 time=0\n",
      "note_on channel=0 note=83 velocity=124 time=0\n",
      "note_on channel=0 note=83 velocity=124 time=0\n",
      "note_on channel=0 note=83 velocity=124 time=0\n",
      "note_on channel=0 note=67 velocity=0 time=308\n",
      "note_on channel=0 note=67 velocity=0 time=0\n",
      "note_on channel=0 note=71 velocity=0 time=0\n",
      "note_on channel=0 note=71 velocity=0 time=0\n",
      "note_on channel=0 note=74 velocity=0 time=0\n",
      "note_on channel=0 note=74 velocity=0 time=0\n",
      "note_on channel=0 note=83 velocity=0 time=0\n",
      "note_on channel=0 note=83 velocity=0 time=0\n",
      "note_on channel=0 note=83 velocity=0 time=0\n",
      "note_on channel=0 note=83 velocity=0 time=0\n",
      "note_on channel=0 note=83 velocity=0 time=0\n",
      "note_on channel=0 note=69 velocity=100 time=5\n",
      "note_on channel=0 note=69 velocity=100 time=0\n",
      "note_on channel=0 note=72 velocity=100 time=0\n",
      "note_on channel=0 note=72 velocity=100 time=0\n",
      "note_on channel=0 note=81 velocity=124 time=0\n",
      "note_on channel=0 note=81 velocity=124 time=0\n",
      "note_on channel=0 note=81 velocity=124 time=0\n",
      "note_on channel=0 note=81 velocity=124 time=0\n",
      "note_on channel=0 note=81 velocity=124 time=0\n",
      "note_on channel=0 note=81 velocity=0 time=308\n",
      "note_on channel=0 note=81 velocity=0 time=0\n",
      "note_on channel=0 note=81 velocity=0 time=0\n",
      "note_on channel=0 note=81 velocity=0 time=0\n",
      "note_on channel=0 note=81 velocity=0 time=0\n",
      "note_on channel=0 note=83 velocity=124 time=4\n",
      "note_on channel=0 note=83 velocity=124 time=0\n",
      "note_on channel=0 note=83 velocity=124 time=0\n",
      "note_on channel=0 note=83 velocity=124 time=0\n",
      "note_on channel=0 note=83 velocity=124 time=0\n",
      "note_on channel=0 note=83 velocity=0 time=154\n",
      "note_on channel=0 note=83 velocity=0 time=0\n",
      "note_on channel=0 note=83 velocity=0 time=0\n",
      "note_on channel=0 note=83 velocity=0 time=0\n",
      "note_on channel=0 note=83 velocity=0 time=0\n",
      "note_on channel=0 note=81 velocity=124 time=4\n",
      "note_on channel=0 note=81 velocity=124 time=0\n",
      "note_on channel=0 note=81 velocity=124 time=0\n",
      "note_on channel=0 note=81 velocity=124 time=0\n",
      "note_on channel=0 note=81 velocity=124 time=0\n",
      "note_on channel=0 note=81 velocity=0 time=154\n",
      "note_on channel=0 note=81 velocity=0 time=0\n",
      "note_on channel=0 note=81 velocity=0 time=0\n",
      "note_on channel=0 note=81 velocity=0 time=0\n",
      "note_on channel=0 note=81 velocity=0 time=0\n",
      "note_on channel=0 note=79 velocity=124 time=5\n",
      "note_on channel=0 note=79 velocity=124 time=0\n",
      "note_on channel=0 note=79 velocity=124 time=0\n",
      "note_on channel=0 note=79 velocity=124 time=0\n",
      "note_on channel=0 note=79 velocity=124 time=0\n",
      "note_on channel=0 note=79 velocity=0 time=308\n",
      "note_on channel=0 note=79 velocity=0 time=0\n",
      "note_on channel=0 note=79 velocity=0 time=0\n",
      "note_on channel=0 note=79 velocity=0 time=0\n",
      "note_on channel=0 note=79 velocity=0 time=0\n",
      "note_on channel=0 note=78 velocity=124 time=4\n",
      "note_on channel=0 note=78 velocity=124 time=0\n",
      "note_on channel=0 note=78 velocity=124 time=0\n",
      "note_on channel=0 note=78 velocity=124 time=0\n",
      "note_on channel=0 note=78 velocity=124 time=0\n",
      "note_on channel=0 note=78 velocity=0 time=154\n",
      "note_on channel=0 note=78 velocity=0 time=0\n",
      "note_on channel=0 note=78 velocity=0 time=0\n",
      "note_on channel=0 note=78 velocity=0 time=0\n",
      "note_on channel=0 note=78 velocity=0 time=0\n",
      "note_on channel=0 note=76 velocity=124 time=5\n",
      "note_on channel=0 note=76 velocity=124 time=0\n",
      "note_on channel=0 note=76 velocity=124 time=0\n",
      "note_on channel=0 note=76 velocity=124 time=0\n",
      "note_on channel=0 note=76 velocity=124 time=0\n",
      "note_on channel=0 note=76 velocity=124 time=0\n",
      "note_on channel=0 note=76 velocity=124 time=0\n",
      "note_on channel=0 note=69 velocity=0 time=154\n",
      "note_on channel=0 note=69 velocity=0 time=0\n",
      "note_on channel=0 note=72 velocity=0 time=0\n",
      "note_on channel=0 note=72 velocity=0 time=0\n",
      "note_on channel=0 note=76 velocity=0 time=0\n",
      "note_on channel=0 note=76 velocity=0 time=0\n",
      "note_on channel=0 note=76 velocity=0 time=0\n",
      "note_on channel=0 note=76 velocity=0 time=0\n",
      "note_on channel=0 note=76 velocity=0 time=0\n",
      "note_on channel=0 note=76 velocity=0 time=0\n",
      "note_on channel=0 note=76 velocity=0 time=0\n",
      "note_on channel=0 note=67 velocity=100 time=4\n",
      "note_on channel=0 note=67 velocity=100 time=0\n",
      "note_on channel=0 note=71 velocity=124 time=0\n",
      "note_on channel=0 note=71 velocity=124 time=0\n",
      "note_on channel=0 note=71 velocity=124 time=0\n",
      "note_on channel=0 note=71 velocity=124 time=0\n",
      "note_on channel=0 note=71 velocity=124 time=0\n",
      "note_on channel=0 note=71 velocity=124 time=0\n",
      "note_on channel=0 note=71 velocity=124 time=0\n",
      "note_on channel=0 note=74 velocity=100 time=0\n",
      "note_on channel=0 note=74 velocity=100 time=0\n",
      "note_on channel=0 note=71 velocity=0 time=616\n",
      "note_on channel=0 note=71 velocity=0 time=0\n",
      "note_on channel=0 note=71 velocity=0 time=0\n",
      "note_on channel=0 note=71 velocity=0 time=0\n",
      "note_on channel=0 note=71 velocity=0 time=0\n",
      "note_on channel=0 note=79 velocity=124 time=4\n",
      "note_on channel=0 note=79 velocity=124 time=0\n",
      "note_on channel=0 note=79 velocity=124 time=0\n",
      "note_on channel=0 note=79 velocity=124 time=0\n",
      "note_on channel=0 note=79 velocity=124 time=0\n",
      "note_on channel=0 note=67 velocity=0 time=616\n",
      "note_on channel=0 note=67 velocity=0 time=0\n",
      "note_on channel=0 note=71 velocity=0 time=0\n",
      "note_on channel=0 note=71 velocity=0 time=0\n",
      "note_on channel=0 note=74 velocity=0 time=0\n",
      "note_on channel=0 note=74 velocity=0 time=0\n",
      "note_on channel=0 note=79 velocity=0 time=0\n",
      "note_on channel=0 note=79 velocity=0 time=0\n",
      "note_on channel=0 note=79 velocity=0 time=0\n",
      "note_on channel=0 note=79 velocity=0 time=0\n",
      "note_on channel=0 note=79 velocity=0 time=0\n",
      "note_on channel=0 note=60 velocity=100 time=5\n",
      "note_on channel=0 note=60 velocity=100 time=0\n",
      "note_on channel=0 note=64 velocity=100 time=0\n",
      "note_on channel=0 note=64 velocity=100 time=0\n",
      "note_on channel=0 note=67 velocity=100 time=0\n",
      "note_on channel=0 note=67 velocity=100 time=0\n",
      "note_on channel=0 note=76 velocity=124 time=0\n",
      "note_on channel=0 note=76 velocity=124 time=0\n",
      "note_on channel=0 note=76 velocity=124 time=0\n",
      "note_on channel=0 note=76 velocity=124 time=0\n",
      "note_on channel=0 note=76 velocity=124 time=0\n",
      "note_on channel=0 note=76 velocity=0 time=229\n",
      "note_on channel=0 note=76 velocity=0 time=0\n",
      "note_on channel=0 note=76 velocity=0 time=0\n",
      "note_on channel=0 note=76 velocity=0 time=0\n",
      "note_on channel=0 note=76 velocity=0 time=0\n",
      "note_on channel=0 note=79 velocity=124 time=4\n",
      "note_on channel=0 note=79 velocity=124 time=0\n",
      "note_on channel=0 note=79 velocity=124 time=0\n",
      "note_on channel=0 note=79 velocity=124 time=0\n",
      "note_on channel=0 note=79 velocity=124 time=0\n",
      "note_on channel=0 note=79 velocity=0 time=75\n",
      "note_on channel=0 note=79 velocity=0 time=0\n",
      "note_on channel=0 note=79 velocity=0 time=0\n",
      "note_on channel=0 note=79 velocity=0 time=0\n",
      "note_on channel=0 note=79 velocity=0 time=0\n",
      "note_on channel=0 note=76 velocity=124 time=4\n",
      "note_on channel=0 note=76 velocity=124 time=0\n",
      "note_on channel=0 note=76 velocity=124 time=0\n",
      "note_on channel=0 note=76 velocity=124 time=0\n",
      "note_on channel=0 note=76 velocity=124 time=0\n",
      "note_on channel=0 note=76 velocity=0 time=154\n",
      "note_on channel=0 note=76 velocity=0 time=0\n",
      "note_on channel=0 note=76 velocity=0 time=0\n",
      "note_on channel=0 note=76 velocity=0 time=0\n",
      "note_on channel=0 note=76 velocity=0 time=0\n",
      "note_on channel=0 note=74 velocity=124 time=5\n",
      "note_on channel=0 note=74 velocity=124 time=0\n",
      "note_on channel=0 note=74 velocity=124 time=0\n",
      "note_on channel=0 note=74 velocity=124 time=0\n",
      "note_on channel=0 note=74 velocity=124 time=0\n",
      "note_on channel=0 note=74 velocity=0 time=154\n",
      "note_on channel=0 note=74 velocity=0 time=0\n",
      "note_on channel=0 note=74 velocity=0 time=0\n",
      "note_on channel=0 note=74 velocity=0 time=0\n",
      "note_on channel=0 note=74 velocity=0 time=0\n",
      "note_on channel=0 note=71 velocity=124 time=4\n",
      "note_on channel=0 note=71 velocity=124 time=0\n",
      "note_on channel=0 note=71 velocity=124 time=0\n",
      "note_on channel=0 note=71 velocity=124 time=0\n",
      "note_on channel=0 note=71 velocity=124 time=0\n",
      "note_on channel=0 note=71 velocity=0 time=154\n",
      "note_on channel=0 note=71 velocity=0 time=0\n",
      "note_on channel=0 note=71 velocity=0 time=0\n",
      "note_on channel=0 note=71 velocity=0 time=0\n",
      "note_on channel=0 note=71 velocity=0 time=0\n",
      "note_on channel=0 note=74 velocity=124 time=4\n",
      "note_on channel=0 note=74 velocity=124 time=0\n",
      "note_on channel=0 note=74 velocity=124 time=0\n",
      "note_on channel=0 note=74 velocity=124 time=0\n",
      "note_on channel=0 note=74 velocity=124 time=0\n",
      "note_on channel=0 note=74 velocity=0 time=154\n",
      "note_on channel=0 note=74 velocity=0 time=0\n",
      "note_on channel=0 note=74 velocity=0 time=0\n",
      "note_on channel=0 note=74 velocity=0 time=0\n",
      "note_on channel=0 note=74 velocity=0 time=0\n",
      "note_on channel=0 note=76 velocity=124 time=5\n",
      "note_on channel=0 note=76 velocity=124 time=0\n",
      "note_on channel=0 note=76 velocity=124 time=0\n",
      "note_on channel=0 note=76 velocity=124 time=0\n",
      "note_on channel=0 note=76 velocity=124 time=0\n",
      "note_on channel=0 note=76 velocity=0 time=154\n",
      "note_on channel=0 note=76 velocity=0 time=0\n",
      "note_on channel=0 note=76 velocity=0 time=0\n",
      "note_on channel=0 note=76 velocity=0 time=0\n",
      "note_on channel=0 note=76 velocity=0 time=0\n",
      "note_on channel=0 note=79 velocity=124 time=4\n",
      "note_on channel=0 note=79 velocity=124 time=0\n",
      "note_on channel=0 note=79 velocity=124 time=0\n",
      "note_on channel=0 note=79 velocity=124 time=0\n",
      "note_on channel=0 note=79 velocity=124 time=0\n",
      "note_on channel=0 note=60 velocity=0 time=154\n",
      "note_on channel=0 note=60 velocity=0 time=0\n",
      "note_on channel=0 note=64 velocity=0 time=0\n",
      "note_on channel=0 note=64 velocity=0 time=0\n",
      "note_on channel=0 note=67 velocity=0 time=0\n",
      "note_on channel=0 note=67 velocity=0 time=0\n",
      "note_on channel=0 note=79 velocity=0 time=0\n",
      "note_on channel=0 note=79 velocity=0 time=0\n",
      "note_on channel=0 note=79 velocity=0 time=0\n",
      "note_on channel=0 note=79 velocity=0 time=0\n",
      "note_on channel=0 note=79 velocity=0 time=0\n",
      "note_on channel=0 note=62 velocity=100 time=5\n",
      "note_on channel=0 note=62 velocity=100 time=0\n",
      "note_on channel=0 note=66 velocity=100 time=0\n",
      "note_on channel=0 note=66 velocity=100 time=0\n",
      "note_on channel=0 note=69 velocity=100 time=0\n",
      "note_on channel=0 note=69 velocity=100 time=0\n",
      "note_on channel=0 note=74 velocity=124 time=0\n",
      "note_on channel=0 note=74 velocity=124 time=0\n",
      "note_on channel=0 note=74 velocity=124 time=0\n",
      "note_on channel=0 note=74 velocity=124 time=0\n",
      "note_on channel=0 note=74 velocity=124 time=0\n",
      "note_on channel=0 note=62 velocity=0 time=1240\n",
      "note_on channel=0 note=62 velocity=0 time=0\n",
      "note_on channel=0 note=66 velocity=0 time=0\n",
      "note_on channel=0 note=66 velocity=0 time=0\n",
      "note_on channel=0 note=69 velocity=0 time=0\n",
      "note_on channel=0 note=69 velocity=0 time=0\n",
      "note_on channel=0 note=74 velocity=0 time=0\n",
      "note_on channel=0 note=74 velocity=0 time=0\n",
      "note_on channel=0 note=74 velocity=0 time=0\n",
      "note_on channel=0 note=74 velocity=0 time=0\n",
      "note_on channel=0 note=74 velocity=0 time=0\n",
      "note_on channel=0 note=67 velocity=100 time=5\n",
      "note_on channel=0 note=67 velocity=100 time=0\n",
      "note_on channel=0 note=71 velocity=124 time=154\n",
      "note_on channel=0 note=71 velocity=124 time=0\n",
      "note_on channel=0 note=71 velocity=124 time=0\n",
      "note_on channel=0 note=71 velocity=124 time=0\n",
      "note_on channel=0 note=71 velocity=124 time=0\n",
      "note_on channel=0 note=74 velocity=124 time=620\n",
      "note_on channel=0 note=74 velocity=124 time=0\n",
      "note_on channel=0 note=74 velocity=124 time=0\n",
      "note_on channel=0 note=74 velocity=124 time=0\n",
      "note_on channel=0 note=74 velocity=124 time=0\n",
      "note_on channel=0 note=74 velocity=0 time=154\n",
      "note_on channel=0 note=74 velocity=0 time=0\n",
      "note_on channel=0 note=74 velocity=0 time=0\n",
      "note_on channel=0 note=76 velocity=124 time=5\n",
      "note_on channel=0 note=76 velocity=124 time=0\n",
      "note_on channel=0 note=76 velocity=124 time=0\n",
      "note_on channel=0 note=71 velocity=0 time=154\n",
      "note_on channel=0 note=71 velocity=0 time=0\n",
      "note_on channel=0 note=71 velocity=0 time=0\n",
      "note_on channel=0 note=67 velocity=0 time=154\n",
      "note_on channel=0 note=67 velocity=0 time=0\n",
      "note_on channel=0 note=71 velocity=0 time=0\n",
      "note_on channel=0 note=71 velocity=0 time=0\n",
      "note_on channel=0 note=74 velocity=0 time=0\n",
      "note_on channel=0 note=74 velocity=0 time=0\n",
      "note_on channel=0 note=76 velocity=0 time=0\n",
      "note_on channel=0 note=76 velocity=0 time=0\n",
      "note_on channel=0 note=76 velocity=0 time=0\n",
      "note_on channel=0 note=64 velocity=100 time=4\n",
      "note_on channel=0 note=64 velocity=100 time=0\n",
      "note_on channel=0 note=67 velocity=100 time=0\n",
      "note_on channel=0 note=67 velocity=100 time=0\n",
      "note_on channel=0 note=71 velocity=100 time=0\n",
      "note_on channel=0 note=71 velocity=100 time=0\n",
      "note_on channel=0 note=79 velocity=124 time=0\n",
      "note_on channel=0 note=79 velocity=124 time=0\n",
      "note_on channel=0 note=79 velocity=124 time=0\n",
      "note_on channel=0 note=79 velocity=0 time=462\n",
      "note_on channel=0 note=79 velocity=0 time=0\n",
      "note_on channel=0 note=79 velocity=0 time=0\n",
      "note_on channel=0 note=81 velocity=124 time=4\n",
      "note_on channel=0 note=81 velocity=124 time=0\n",
      "note_on channel=0 note=81 velocity=124 time=0\n",
      "note_on channel=0 note=81 velocity=0 time=154\n",
      "note_on channel=0 note=81 velocity=0 time=0\n",
      "note_on channel=0 note=81 velocity=0 time=0\n",
      "note_on channel=0 note=76 velocity=124 time=5\n",
      "note_on channel=0 note=76 velocity=124 time=0\n",
      "note_on channel=0 note=76 velocity=124 time=0\n",
      "note_on channel=0 note=76 velocity=0 time=154\n",
      "note_on channel=0 note=76 velocity=0 time=0\n",
      "note_on channel=0 note=76 velocity=0 time=0\n",
      "note_on channel=0 note=79 velocity=124 time=4\n",
      "note_on channel=0 note=79 velocity=124 time=0\n",
      "note_on channel=0 note=79 velocity=124 time=0\n",
      "note_on channel=0 note=79 velocity=0 time=154\n",
      "note_on channel=0 note=79 velocity=0 time=0\n",
      "note_on channel=0 note=79 velocity=0 time=0\n",
      "note_on channel=0 note=74 velocity=124 time=5\n",
      "note_on channel=0 note=74 velocity=124 time=0\n",
      "note_on channel=0 note=74 velocity=124 time=0\n",
      "note_on channel=0 note=64 velocity=0 time=308\n",
      "note_on channel=0 note=64 velocity=0 time=0\n",
      "note_on channel=0 note=67 velocity=0 time=0\n",
      "note_on channel=0 note=67 velocity=0 time=0\n",
      "note_on channel=0 note=71 velocity=0 time=0\n",
      "note_on channel=0 note=71 velocity=0 time=0\n",
      "note_on channel=0 note=74 velocity=0 time=0\n",
      "note_on channel=0 note=74 velocity=0 time=0\n",
      "note_on channel=0 note=74 velocity=0 time=0\n",
      "note_on channel=0 note=67 velocity=100 time=4\n",
      "note_on channel=0 note=67 velocity=100 time=0\n",
      "note_on channel=0 note=71 velocity=100 time=0\n",
      "note_on channel=0 note=71 velocity=100 time=0\n",
      "note_on channel=0 note=74 velocity=100 time=0\n",
      "note_on channel=0 note=74 velocity=100 time=0\n",
      "note_on channel=0 note=86 velocity=124 time=0\n",
      "note_on channel=0 note=86 velocity=124 time=0\n",
      "note_on channel=0 note=86 velocity=124 time=0\n",
      "note_on channel=0 note=86 velocity=0 time=462\n",
      "note_on channel=0 note=86 velocity=0 time=0\n",
      "note_on channel=0 note=86 velocity=0 time=0\n",
      "note_on channel=0 note=91 velocity=124 time=4\n",
      "note_on channel=0 note=91 velocity=124 time=0\n",
      "note_on channel=0 note=91 velocity=124 time=0\n",
      "note_on channel=0 note=91 velocity=0 time=154\n",
      "note_on channel=0 note=91 velocity=0 time=0\n",
      "note_on channel=0 note=91 velocity=0 time=0\n",
      "note_on channel=0 note=88 velocity=124 time=5\n",
      "note_on channel=0 note=88 velocity=124 time=0\n",
      "note_on channel=0 note=88 velocity=124 time=0\n",
      "note_on channel=0 note=88 velocity=0 time=154\n",
      "note_on channel=0 note=88 velocity=0 time=0\n",
      "note_on channel=0 note=88 velocity=0 time=0\n",
      "note_on channel=0 note=86 velocity=124 time=4\n",
      "note_on channel=0 note=86 velocity=124 time=0\n",
      "note_on channel=0 note=86 velocity=124 time=0\n",
      "note_on channel=0 note=86 velocity=0 time=154\n",
      "note_on channel=0 note=86 velocity=0 time=0\n",
      "note_on channel=0 note=86 velocity=0 time=0\n",
      "note_on channel=0 note=83 velocity=124 time=5\n",
      "note_on channel=0 note=83 velocity=124 time=0\n",
      "note_on channel=0 note=83 velocity=124 time=0\n",
      "note_on channel=0 note=83 velocity=0 time=154\n",
      "note_on channel=0 note=83 velocity=0 time=0\n",
      "note_on channel=0 note=83 velocity=0 time=0\n",
      "note_on channel=0 note=86 velocity=124 time=4\n",
      "note_on channel=0 note=86 velocity=124 time=0\n",
      "note_on channel=0 note=86 velocity=124 time=0\n",
      "note_on channel=0 note=67 velocity=0 time=154\n",
      "note_on channel=0 note=67 velocity=0 time=0\n",
      "note_on channel=0 note=71 velocity=0 time=0\n",
      "note_on channel=0 note=71 velocity=0 time=0\n",
      "note_on channel=0 note=74 velocity=0 time=0\n",
      "note_on channel=0 note=74 velocity=0 time=0\n",
      "note_on channel=0 note=86 velocity=0 time=0\n",
      "note_on channel=0 note=86 velocity=0 time=0\n",
      "note_on channel=0 note=86 velocity=0 time=0\n",
      "note_on channel=0 note=62 velocity=100 time=4\n",
      "note_on channel=0 note=62 velocity=100 time=0\n",
      "note_on channel=0 note=66 velocity=100 time=0\n",
      "note_on channel=0 note=66 velocity=100 time=0\n",
      "note_on channel=0 note=69 velocity=100 time=0\n",
      "note_on channel=0 note=69 velocity=100 time=0\n",
      "note_on channel=0 note=74 velocity=100 time=0\n",
      "note_on channel=0 note=74 velocity=100 time=0\n",
      "note_on channel=0 note=81 velocity=124 time=0\n",
      "note_on channel=0 note=81 velocity=124 time=0\n",
      "note_on channel=0 note=81 velocity=124 time=0\n",
      "note_on channel=0 note=62 velocity=0 time=1241\n",
      "note_on channel=0 note=62 velocity=0 time=0\n",
      "note_on channel=0 note=66 velocity=0 time=0\n",
      "note_on channel=0 note=66 velocity=0 time=0\n",
      "note_on channel=0 note=69 velocity=0 time=0\n",
      "note_on channel=0 note=69 velocity=0 time=0\n",
      "note_on channel=0 note=74 velocity=0 time=0\n",
      "note_on channel=0 note=74 velocity=0 time=0\n",
      "note_on channel=0 note=81 velocity=0 time=0\n",
      "note_on channel=0 note=81 velocity=0 time=0\n",
      "note_on channel=0 note=81 velocity=0 time=0\n",
      "note_on channel=0 note=69 velocity=100 time=5\n",
      "note_on channel=0 note=69 velocity=100 time=0\n",
      "note_on channel=0 note=72 velocity=100 time=0\n",
      "note_on channel=0 note=72 velocity=100 time=0\n",
      "note_on channel=0 note=81 velocity=124 time=0\n",
      "note_on channel=0 note=81 velocity=124 time=0\n",
      "note_on channel=0 note=81 velocity=124 time=0\n",
      "note_on channel=0 note=81 velocity=0 time=462\n",
      "note_on channel=0 note=81 velocity=0 time=0\n",
      "note_on channel=0 note=81 velocity=0 time=0\n",
      "note_on channel=0 note=83 velocity=124 time=4\n",
      "note_on channel=0 note=83 velocity=124 time=0\n",
      "note_on channel=0 note=83 velocity=124 time=0\n",
      "note_on channel=0 note=83 velocity=0 time=154\n",
      "note_on channel=0 note=83 velocity=0 time=0\n",
      "note_on channel=0 note=83 velocity=0 time=0\n",
      "note_on channel=0 note=78 velocity=124 time=4\n",
      "note_on channel=0 note=78 velocity=124 time=0\n",
      "note_on channel=0 note=78 velocity=124 time=0\n",
      "note_on channel=0 note=78 velocity=0 time=308\n",
      "note_on channel=0 note=78 velocity=0 time=0\n",
      "note_on channel=0 note=78 velocity=0 time=0\n",
      "note_on channel=0 note=76 velocity=124 time=5\n",
      "note_on channel=0 note=76 velocity=124 time=0\n",
      "note_on channel=0 note=76 velocity=124 time=0\n",
      "note_on channel=0 note=76 velocity=124 time=0\n",
      "note_on channel=0 note=76 velocity=124 time=0\n",
      "note_on channel=0 note=69 velocity=0 time=308\n",
      "note_on channel=0 note=69 velocity=0 time=0\n",
      "note_on channel=0 note=72 velocity=0 time=0\n",
      "note_on channel=0 note=72 velocity=0 time=0\n",
      "note_on channel=0 note=76 velocity=0 time=0\n",
      "note_on channel=0 note=76 velocity=0 time=0\n",
      "note_on channel=0 note=76 velocity=0 time=0\n",
      "note_on channel=0 note=76 velocity=0 time=0\n",
      "note_on channel=0 note=76 velocity=0 time=0\n",
      "note_on channel=0 note=59 velocity=100 time=4\n",
      "note_on channel=0 note=59 velocity=100 time=0\n",
      "note_on channel=0 note=62 velocity=100 time=0\n",
      "note_on channel=0 note=62 velocity=100 time=0\n",
      "note_on channel=0 note=66 velocity=100 time=0\n",
      "note_on channel=0 note=66 velocity=100 time=0\n",
      "note_on channel=0 note=74 velocity=124 time=0\n",
      "note_on channel=0 note=74 velocity=124 time=0\n",
      "note_on channel=0 note=74 velocity=124 time=0\n",
      "note_on channel=0 note=74 velocity=0 time=462\n",
      "note_on channel=0 note=74 velocity=0 time=0\n",
      "note_on channel=0 note=74 velocity=0 time=0\n",
      "note_on channel=0 note=76 velocity=124 time=5\n",
      "note_on channel=0 note=76 velocity=124 time=0\n",
      "note_on channel=0 note=76 velocity=124 time=0\n",
      "note_on channel=0 note=76 velocity=0 time=154\n",
      "note_on channel=0 note=76 velocity=0 time=0\n",
      "note_on channel=0 note=76 velocity=0 time=0\n",
      "note_on channel=0 note=79 velocity=124 time=4\n",
      "note_on channel=0 note=79 velocity=124 time=0\n",
      "note_on channel=0 note=79 velocity=124 time=0\n",
      "note_on channel=0 note=79 velocity=0 time=308\n",
      "note_on channel=0 note=79 velocity=0 time=0\n",
      "note_on channel=0 note=79 velocity=0 time=0\n",
      "note_on channel=0 note=81 velocity=124 time=4\n",
      "note_on channel=0 note=81 velocity=124 time=0\n",
      "note_on channel=0 note=81 velocity=124 time=0\n",
      "note_on channel=0 note=59 velocity=0 time=308\n",
      "note_on channel=0 note=59 velocity=0 time=0\n",
      "note_on channel=0 note=62 velocity=0 time=0\n",
      "note_on channel=0 note=62 velocity=0 time=0\n",
      "note_on channel=0 note=66 velocity=0 time=0\n",
      "note_on channel=0 note=66 velocity=0 time=0\n",
      "note_on channel=0 note=81 velocity=0 time=0\n",
      "note_on channel=0 note=81 velocity=0 time=0\n",
      "note_on channel=0 note=81 velocity=0 time=0\n",
      "note_on channel=0 note=69 velocity=100 time=5\n",
      "note_on channel=0 note=69 velocity=100 time=0\n",
      "note_on channel=0 note=71 velocity=124 time=0\n",
      "note_on channel=0 note=71 velocity=124 time=0\n",
      "note_on channel=0 note=71 velocity=124 time=0\n",
      "note_on channel=0 note=72 velocity=100 time=0\n",
      "note_on channel=0 note=72 velocity=100 time=0\n",
      "note_on channel=0 note=71 velocity=0 time=308\n",
      "note_on channel=0 note=71 velocity=0 time=0\n",
      "note_on channel=0 note=71 velocity=0 time=0\n",
      "note_on channel=0 note=79 velocity=124 time=4\n",
      "note_on channel=0 note=79 velocity=124 time=0\n",
      "note_on channel=0 note=79 velocity=124 time=0\n",
      "note_on channel=0 note=79 velocity=0 time=308\n",
      "note_on channel=0 note=79 velocity=0 time=0\n",
      "note_on channel=0 note=79 velocity=0 time=0\n",
      "note_on channel=0 note=76 velocity=124 time=5\n",
      "note_on channel=0 note=76 velocity=124 time=0\n",
      "note_on channel=0 note=76 velocity=124 time=0\n",
      "note_on channel=0 note=76 velocity=0 time=154\n",
      "note_on channel=0 note=76 velocity=0 time=0\n",
      "note_on channel=0 note=76 velocity=0 time=0\n",
      "note_on channel=0 note=74 velocity=124 time=4\n",
      "note_on channel=0 note=74 velocity=124 time=0\n",
      "note_on channel=0 note=74 velocity=124 time=0\n",
      "note_on channel=0 note=74 velocity=0 time=154\n",
      "note_on channel=0 note=74 velocity=0 time=0\n",
      "note_on channel=0 note=74 velocity=0 time=0\n",
      "note_on channel=0 note=76 velocity=124 time=4\n",
      "note_on channel=0 note=76 velocity=124 time=0\n",
      "note_on channel=0 note=76 velocity=124 time=0\n",
      "note_on channel=0 note=76 velocity=124 time=0\n",
      "note_on channel=0 note=76 velocity=124 time=0\n",
      "note_on channel=0 note=76 velocity=0 time=154\n",
      "note_on channel=0 note=76 velocity=0 time=0\n",
      "note_on channel=0 note=76 velocity=0 time=0\n",
      "note_on channel=0 note=79 velocity=124 time=5\n",
      "note_on channel=0 note=79 velocity=124 time=0\n",
      "note_on channel=0 note=79 velocity=124 time=0\n",
      "note_on channel=0 note=69 velocity=0 time=154\n",
      "note_on channel=0 note=69 velocity=0 time=0\n",
      "note_on channel=0 note=72 velocity=0 time=0\n",
      "note_on channel=0 note=72 velocity=0 time=0\n",
      "note_on channel=0 note=76 velocity=0 time=0\n",
      "note_on channel=0 note=76 velocity=0 time=0\n",
      "note_on channel=0 note=79 velocity=0 time=0\n",
      "note_on channel=0 note=79 velocity=0 time=0\n",
      "note_on channel=0 note=79 velocity=0 time=0\n",
      "note_on channel=0 note=62 velocity=100 time=4\n",
      "note_on channel=0 note=62 velocity=100 time=0\n",
      "note_on channel=0 note=66 velocity=100 time=0\n",
      "note_on channel=0 note=66 velocity=100 time=0\n",
      "note_on channel=0 note=69 velocity=100 time=0\n",
      "note_on channel=0 note=69 velocity=100 time=0\n",
      "note_on channel=0 note=74 velocity=124 time=0\n",
      "note_on channel=0 note=74 velocity=124 time=0\n",
      "note_on channel=0 note=74 velocity=124 time=0\n",
      "note_on channel=0 note=74 velocity=124 time=0\n",
      "note_on channel=0 note=74 velocity=124 time=0\n",
      "note_on channel=0 note=60 velocity=100 time=933\n",
      "note_on channel=0 note=72 velocity=100 time=0\n",
      "note_on channel=0 note=84 velocity=100 time=0\n",
      "note_on channel=0 note=62 velocity=0 time=308\n",
      "note_on channel=0 note=62 velocity=0 time=0\n",
      "note_on channel=0 note=66 velocity=0 time=0\n",
      "note_on channel=0 note=66 velocity=0 time=0\n",
      "note_on channel=0 note=69 velocity=0 time=0\n",
      "note_on channel=0 note=69 velocity=0 time=0\n",
      "note_on channel=0 note=74 velocity=0 time=0\n",
      "note_on channel=0 note=74 velocity=0 time=0\n",
      "note_on channel=0 note=74 velocity=0 time=0\n",
      "note_on channel=0 note=74 velocity=0 time=0\n",
      "note_on channel=0 note=74 velocity=0 time=0\n",
      "note_on channel=0 note=67 velocity=100 time=4\n",
      "note_on channel=0 note=67 velocity=100 time=0\n",
      "note_on channel=0 note=71 velocity=100 time=0\n",
      "note_on channel=0 note=71 velocity=100 time=0\n",
      "note_on channel=0 note=74 velocity=100 time=0\n",
      "note_on channel=0 note=74 velocity=100 time=0\n",
      "note_on channel=0 note=83 velocity=124 time=0\n",
      "note_on channel=0 note=83 velocity=124 time=0\n",
      "note_on channel=0 note=83 velocity=124 time=0\n",
      "note_on channel=0 note=83 velocity=124 time=0\n",
      "note_on channel=0 note=83 velocity=124 time=0\n",
      "note_on channel=0 note=83 velocity=0 time=462\n",
      "note_on channel=0 note=83 velocity=0 time=0\n",
      "note_on channel=0 note=83 velocity=0 time=0\n",
      "note_on channel=0 note=83 velocity=0 time=0\n",
      "note_on channel=0 note=83 velocity=0 time=0\n",
      "note_on channel=0 note=86 velocity=124 time=5\n",
      "note_on channel=0 note=86 velocity=124 time=0\n",
      "note_on channel=0 note=86 velocity=124 time=0\n",
      "note_on channel=0 note=86 velocity=124 time=0\n",
      "note_on channel=0 note=86 velocity=124 time=0\n",
      "note_on channel=0 note=67 velocity=0 time=154\n",
      "note_on channel=0 note=67 velocity=0 time=0\n",
      "note_on channel=0 note=71 velocity=0 time=0\n",
      "note_on channel=0 note=71 velocity=0 time=0\n",
      "note_on channel=0 note=74 velocity=0 time=0\n",
      "note_on channel=0 note=74 velocity=0 time=0\n",
      "note_on channel=0 note=86 velocity=0 time=0\n",
      "note_on channel=0 note=86 velocity=0 time=0\n",
      "note_on channel=0 note=86 velocity=0 time=0\n",
      "note_on channel=0 note=86 velocity=0 time=0\n",
      "note_on channel=0 note=86 velocity=0 time=0\n",
      "note_on channel=0 note=59 velocity=100 time=4\n",
      "note_on channel=0 note=59 velocity=100 time=0\n",
      "note_on channel=0 note=62 velocity=100 time=0\n",
      "note_on channel=0 note=62 velocity=100 time=0\n",
      "note_on channel=0 note=66 velocity=100 time=0\n",
      "note_on channel=0 note=66 velocity=100 time=0\n",
      "note_on channel=0 note=78 velocity=124 time=0\n",
      "note_on channel=0 note=78 velocity=124 time=0\n",
      "note_on channel=0 note=78 velocity=124 time=0\n",
      "note_on channel=0 note=78 velocity=124 time=0\n",
      "note_on channel=0 note=78 velocity=124 time=0\n",
      "note_on channel=0 note=60 velocity=0 time=308\n",
      "note_on channel=0 note=72 velocity=0 time=0\n",
      "note_on channel=0 note=78 velocity=0 time=0\n",
      "note_on channel=0 note=78 velocity=0 time=0\n",
      "note_on channel=0 note=78 velocity=0 time=0\n",
      "note_on channel=0 note=78 velocity=0 time=0\n",
      "note_on channel=0 note=78 velocity=0 time=0\n",
      "note_on channel=0 note=84 velocity=0 time=0\n",
      "note_on channel=0 note=81 velocity=124 time=5\n",
      "note_on channel=0 note=81 velocity=124 time=0\n",
      "note_on channel=0 note=81 velocity=124 time=0\n",
      "note_on channel=0 note=81 velocity=124 time=0\n",
      "note_on channel=0 note=81 velocity=124 time=0\n",
      "note_on channel=0 note=59 velocity=0 time=308\n",
      "note_on channel=0 note=59 velocity=0 time=0\n",
      "note_on channel=0 note=62 velocity=0 time=0\n",
      "note_on channel=0 note=62 velocity=0 time=0\n",
      "note_on channel=0 note=66 velocity=0 time=0\n",
      "note_on channel=0 note=66 velocity=0 time=0\n",
      "note_on channel=0 note=81 velocity=0 time=0\n",
      "note_on channel=0 note=81 velocity=0 time=0\n",
      "note_on channel=0 note=81 velocity=0 time=0\n",
      "note_on channel=0 note=81 velocity=0 time=0\n",
      "note_on channel=0 note=81 velocity=0 time=0\n",
      "note_on channel=0 note=64 velocity=100 time=4\n",
      "note_on channel=0 note=64 velocity=100 time=0\n",
      "note_on channel=0 note=67 velocity=100 time=0\n",
      "note_on channel=0 note=67 velocity=100 time=0\n",
      "note_on channel=0 note=71 velocity=100 time=0\n",
      "note_on channel=0 note=71 velocity=100 time=0\n",
      "note_on channel=0 note=76 velocity=124 time=0\n",
      "note_on channel=0 note=76 velocity=124 time=0\n",
      "note_on channel=0 note=76 velocity=124 time=0\n",
      "note_on channel=0 note=76 velocity=124 time=0\n",
      "note_on channel=0 note=76 velocity=124 time=0\n",
      "note_on channel=0 note=76 velocity=0 time=154\n",
      "note_on channel=0 note=76 velocity=0 time=0\n",
      "note_on channel=0 note=76 velocity=0 time=0\n",
      "note_on channel=0 note=76 velocity=0 time=0\n",
      "note_on channel=0 note=76 velocity=0 time=0\n",
      "note_on channel=0 note=79 velocity=124 time=4\n",
      "note_on channel=0 note=79 velocity=124 time=0\n",
      "note_on channel=0 note=79 velocity=124 time=0\n",
      "note_on channel=0 note=79 velocity=124 time=0\n",
      "note_on channel=0 note=79 velocity=124 time=0\n",
      "note_on channel=0 note=79 velocity=0 time=154\n",
      "note_on channel=0 note=79 velocity=0 time=0\n",
      "note_on channel=0 note=79 velocity=0 time=0\n",
      "note_on channel=0 note=79 velocity=0 time=0\n",
      "note_on channel=0 note=79 velocity=0 time=0\n",
      "note_on channel=0 note=74 velocity=124 time=5\n",
      "note_on channel=0 note=74 velocity=124 time=0\n",
      "note_on channel=0 note=74 velocity=124 time=0\n",
      "note_on channel=0 note=74 velocity=124 time=0\n",
      "note_on channel=0 note=74 velocity=124 time=0\n",
      "note_on channel=0 note=64 velocity=0 time=928\n",
      "note_on channel=0 note=64 velocity=0 time=0\n",
      "note_on channel=0 note=67 velocity=0 time=0\n",
      "note_on channel=0 note=67 velocity=0 time=0\n",
      "note_on channel=0 note=71 velocity=0 time=0\n",
      "note_on channel=0 note=71 velocity=0 time=0\n",
      "note_on channel=0 note=74 velocity=0 time=0\n",
      "note_on channel=0 note=74 velocity=0 time=0\n",
      "note_on channel=0 note=74 velocity=0 time=0\n",
      "note_on channel=0 note=74 velocity=0 time=0\n",
      "note_on channel=0 note=74 velocity=0 time=0\n",
      "note_on channel=0 note=59 velocity=100 time=5\n",
      "note_on channel=0 note=59 velocity=100 time=0\n",
      "note_on channel=0 note=62 velocity=100 time=0\n",
      "note_on channel=0 note=62 velocity=100 time=0\n",
      "note_on channel=0 note=66 velocity=100 time=0\n",
      "note_on channel=0 note=66 velocity=100 time=0\n",
      "note_on channel=0 note=71 velocity=124 time=0\n",
      "note_on channel=0 note=71 velocity=124 time=0\n",
      "note_on channel=0 note=71 velocity=124 time=0\n",
      "note_on channel=0 note=71 velocity=124 time=0\n",
      "note_on channel=0 note=71 velocity=124 time=0\n",
      "note_on channel=0 note=71 velocity=0 time=154\n",
      "note_on channel=0 note=71 velocity=0 time=0\n",
      "note_on channel=0 note=71 velocity=0 time=0\n",
      "note_on channel=0 note=71 velocity=0 time=0\n",
      "note_on channel=0 note=71 velocity=0 time=0\n",
      "note_on channel=0 note=74 velocity=124 time=4\n",
      "note_on channel=0 note=74 velocity=124 time=0\n",
      "note_on channel=0 note=74 velocity=124 time=0\n",
      "note_on channel=0 note=74 velocity=124 time=0\n",
      "note_on channel=0 note=74 velocity=124 time=0\n",
      "note_on channel=0 note=74 velocity=0 time=308\n",
      "note_on channel=0 note=74 velocity=0 time=0\n",
      "note_on channel=0 note=74 velocity=0 time=0\n",
      "note_on channel=0 note=74 velocity=0 time=0\n",
      "note_on channel=0 note=74 velocity=0 time=0\n",
      "note_on channel=0 note=71 velocity=124 time=4\n",
      "note_on channel=0 note=71 velocity=124 time=0\n",
      "note_on channel=0 note=71 velocity=124 time=0\n",
      "note_on channel=0 note=71 velocity=124 time=0\n",
      "note_on channel=0 note=71 velocity=124 time=0\n",
      "note_on channel=0 note=71 velocity=0 time=154\n",
      "note_on channel=0 note=71 velocity=0 time=0\n",
      "note_on channel=0 note=71 velocity=0 time=0\n",
      "note_on channel=0 note=71 velocity=0 time=0\n",
      "note_on channel=0 note=71 velocity=0 time=0\n",
      "note_on channel=0 note=74 velocity=124 time=5\n",
      "note_on channel=0 note=74 velocity=124 time=0\n",
      "note_on channel=0 note=74 velocity=124 time=0\n",
      "note_on channel=0 note=74 velocity=124 time=0\n",
      "note_on channel=0 note=74 velocity=124 time=0\n",
      "note_on channel=0 note=74 velocity=0 time=154\n",
      "note_on channel=0 note=74 velocity=0 time=0\n",
      "note_on channel=0 note=74 velocity=0 time=0\n",
      "note_on channel=0 note=74 velocity=0 time=0\n",
      "note_on channel=0 note=74 velocity=0 time=0\n",
      "note_on channel=0 note=76 velocity=124 time=4\n",
      "note_on channel=0 note=76 velocity=124 time=0\n",
      "note_on channel=0 note=76 velocity=124 time=0\n",
      "note_on channel=0 note=76 velocity=124 time=0\n",
      "note_on channel=0 note=76 velocity=124 time=0\n",
      "note_on channel=0 note=76 velocity=0 time=154\n",
      "note_on channel=0 note=76 velocity=0 time=0\n",
      "note_on channel=0 note=76 velocity=0 time=0\n",
      "note_on channel=0 note=76 velocity=0 time=0\n",
      "note_on channel=0 note=76 velocity=0 time=0\n",
      "note_on channel=0 note=78 velocity=124 time=5\n",
      "note_on channel=0 note=78 velocity=124 time=0\n",
      "note_on channel=0 note=78 velocity=124 time=0\n",
      "note_on channel=0 note=78 velocity=124 time=0\n",
      "note_on channel=0 note=78 velocity=124 time=0\n",
      "note_on channel=0 note=78 velocity=0 time=154\n",
      "note_on channel=0 note=78 velocity=0 time=0\n",
      "note_on channel=0 note=78 velocity=0 time=0\n",
      "note_on channel=0 note=78 velocity=0 time=0\n",
      "note_on channel=0 note=78 velocity=0 time=0\n",
      "note_on channel=0 note=81 velocity=124 time=4\n",
      "note_on channel=0 note=81 velocity=124 time=0\n",
      "note_on channel=0 note=81 velocity=124 time=0\n",
      "note_on channel=0 note=81 velocity=124 time=0\n",
      "note_on channel=0 note=81 velocity=124 time=0\n",
      "note_on channel=0 note=59 velocity=0 time=154\n",
      "note_on channel=0 note=59 velocity=0 time=0\n",
      "note_on channel=0 note=62 velocity=0 time=0\n",
      "note_on channel=0 note=62 velocity=0 time=0\n",
      "note_on channel=0 note=66 velocity=0 time=0\n",
      "note_on channel=0 note=66 velocity=0 time=0\n",
      "note_on channel=0 note=81 velocity=0 time=0\n",
      "note_on channel=0 note=81 velocity=0 time=0\n",
      "note_on channel=0 note=81 velocity=0 time=0\n",
      "note_on channel=0 note=81 velocity=0 time=0\n",
      "note_on channel=0 note=81 velocity=0 time=0\n",
      "note_on channel=0 note=64 velocity=100 time=4\n",
      "note_on channel=0 note=64 velocity=100 time=0\n",
      "note_on channel=0 note=67 velocity=100 time=0\n",
      "note_on channel=0 note=67 velocity=100 time=0\n",
      "note_on channel=0 note=71 velocity=100 time=0\n",
      "note_on channel=0 note=71 velocity=100 time=0\n",
      "note_on channel=0 note=76 velocity=124 time=0\n",
      "note_on channel=0 note=76 velocity=124 time=0\n",
      "note_on channel=0 note=76 velocity=124 time=0\n",
      "note_on channel=0 note=76 velocity=124 time=0\n",
      "note_on channel=0 note=76 velocity=124 time=0\n",
      "note_on channel=0 note=76 velocity=0 time=929\n",
      "note_on channel=0 note=76 velocity=0 time=0\n",
      "note_on channel=0 note=76 velocity=0 time=0\n",
      "note_on channel=0 note=76 velocity=0 time=0\n",
      "note_on channel=0 note=76 velocity=0 time=0\n",
      "note_on channel=0 note=74 velocity=124 time=4\n",
      "note_on channel=0 note=74 velocity=124 time=0\n",
      "note_on channel=0 note=74 velocity=124 time=0\n",
      "note_on channel=0 note=74 velocity=124 time=0\n",
      "note_on channel=0 note=74 velocity=124 time=0\n",
      "note_on channel=0 note=74 velocity=0 time=154\n",
      "note_on channel=0 note=74 velocity=0 time=0\n",
      "note_on channel=0 note=74 velocity=0 time=0\n",
      "note_on channel=0 note=74 velocity=0 time=0\n",
      "note_on channel=0 note=74 velocity=0 time=0\n",
      "note_on channel=0 note=76 velocity=124 time=5\n",
      "note_on channel=0 note=76 velocity=124 time=0\n",
      "note_on channel=0 note=76 velocity=124 time=0\n",
      "note_on channel=0 note=76 velocity=124 time=0\n",
      "note_on channel=0 note=76 velocity=124 time=0\n",
      "note_on channel=0 note=64 velocity=0 time=154\n",
      "note_on channel=0 note=64 velocity=0 time=0\n",
      "note_on channel=0 note=67 velocity=0 time=0\n",
      "note_on channel=0 note=67 velocity=0 time=0\n",
      "note_on channel=0 note=71 velocity=0 time=0\n",
      "note_on channel=0 note=71 velocity=0 time=0\n",
      "note_on channel=0 note=76 velocity=0 time=0\n",
      "note_on channel=0 note=76 velocity=0 time=0\n",
      "note_on channel=0 note=76 velocity=0 time=0\n",
      "note_on channel=0 note=76 velocity=0 time=0\n",
      "note_on channel=0 note=76 velocity=0 time=0\n",
      "note_on channel=0 note=67 velocity=100 time=4\n",
      "note_on channel=0 note=67 velocity=100 time=0\n",
      "note_on channel=0 note=71 velocity=100 time=0\n",
      "note_on channel=0 note=71 velocity=100 time=0\n",
      "note_on channel=0 note=74 velocity=100 time=0\n",
      "note_on channel=0 note=74 velocity=100 time=0\n",
      "note_on channel=0 note=79 velocity=124 time=0\n",
      "note_on channel=0 note=79 velocity=124 time=0\n",
      "note_on channel=0 note=79 velocity=124 time=0\n",
      "note_on channel=0 note=79 velocity=124 time=0\n",
      "note_on channel=0 note=79 velocity=124 time=0\n",
      "note_on channel=0 note=79 velocity=0 time=462\n",
      "note_on channel=0 note=79 velocity=0 time=0\n",
      "note_on channel=0 note=79 velocity=0 time=0\n",
      "note_on channel=0 note=79 velocity=0 time=0\n",
      "note_on channel=0 note=79 velocity=0 time=0\n",
      "note_on channel=0 note=81 velocity=124 time=4\n",
      "note_on channel=0 note=81 velocity=124 time=0\n",
      "note_on channel=0 note=81 velocity=124 time=0\n",
      "note_on channel=0 note=81 velocity=124 time=0\n",
      "note_on channel=0 note=81 velocity=124 time=0\n",
      "note_on channel=0 note=81 velocity=0 time=154\n",
      "note_on channel=0 note=81 velocity=0 time=0\n",
      "note_on channel=0 note=81 velocity=0 time=0\n",
      "note_on channel=0 note=81 velocity=0 time=0\n",
      "note_on channel=0 note=81 velocity=0 time=0\n",
      "note_on channel=0 note=86 velocity=124 time=5\n",
      "note_on channel=0 note=86 velocity=124 time=0\n",
      "note_on channel=0 note=86 velocity=124 time=0\n",
      "note_on channel=0 note=86 velocity=124 time=0\n",
      "note_on channel=0 note=86 velocity=124 time=0\n",
      "note_on channel=0 note=86 velocity=0 time=308\n",
      "note_on channel=0 note=86 velocity=0 time=0\n",
      "note_on channel=0 note=86 velocity=0 time=0\n",
      "note_on channel=0 note=86 velocity=0 time=0\n",
      "note_on channel=0 note=86 velocity=0 time=0\n",
      "note_on channel=0 note=83 velocity=124 time=4\n",
      "note_on channel=0 note=83 velocity=124 time=0\n",
      "note_on channel=0 note=83 velocity=124 time=0\n",
      "note_on channel=0 note=83 velocity=124 time=0\n",
      "note_on channel=0 note=83 velocity=124 time=0\n",
      "note_on channel=0 note=67 velocity=0 time=308\n",
      "note_on channel=0 note=67 velocity=0 time=0\n",
      "note_on channel=0 note=71 velocity=0 time=0\n",
      "note_on channel=0 note=71 velocity=0 time=0\n",
      "note_on channel=0 note=74 velocity=0 time=0\n",
      "note_on channel=0 note=74 velocity=0 time=0\n",
      "note_on channel=0 note=83 velocity=0 time=0\n",
      "note_on channel=0 note=83 velocity=0 time=0\n",
      "note_on channel=0 note=83 velocity=0 time=0\n",
      "note_on channel=0 note=83 velocity=0 time=0\n",
      "note_on channel=0 note=83 velocity=0 time=0\n",
      "note_on channel=0 note=69 velocity=100 time=5\n",
      "note_on channel=0 note=69 velocity=100 time=0\n",
      "note_on channel=0 note=72 velocity=100 time=0\n",
      "note_on channel=0 note=72 velocity=100 time=0\n",
      "note_on channel=0 note=81 velocity=124 time=0\n",
      "note_on channel=0 note=81 velocity=124 time=0\n",
      "note_on channel=0 note=81 velocity=124 time=0\n",
      "note_on channel=0 note=81 velocity=124 time=0\n",
      "note_on channel=0 note=81 velocity=124 time=0\n",
      "note_on channel=0 note=81 velocity=0 time=308\n",
      "note_on channel=0 note=81 velocity=0 time=0\n",
      "note_on channel=0 note=81 velocity=0 time=0\n",
      "note_on channel=0 note=81 velocity=0 time=0\n",
      "note_on channel=0 note=81 velocity=0 time=0\n",
      "note_on channel=0 note=83 velocity=124 time=4\n",
      "note_on channel=0 note=83 velocity=124 time=0\n",
      "note_on channel=0 note=83 velocity=124 time=0\n",
      "note_on channel=0 note=83 velocity=124 time=0\n",
      "note_on channel=0 note=83 velocity=124 time=0\n",
      "note_on channel=0 note=83 velocity=0 time=154\n",
      "note_on channel=0 note=83 velocity=0 time=0\n",
      "note_on channel=0 note=83 velocity=0 time=0\n",
      "note_on channel=0 note=83 velocity=0 time=0\n",
      "note_on channel=0 note=83 velocity=0 time=0\n",
      "note_on channel=0 note=81 velocity=124 time=4\n",
      "note_on channel=0 note=81 velocity=124 time=0\n",
      "note_on channel=0 note=81 velocity=124 time=0\n",
      "note_on channel=0 note=81 velocity=124 time=0\n",
      "note_on channel=0 note=81 velocity=124 time=0\n",
      "note_on channel=0 note=81 velocity=0 time=154\n",
      "note_on channel=0 note=81 velocity=0 time=0\n",
      "note_on channel=0 note=81 velocity=0 time=0\n",
      "note_on channel=0 note=81 velocity=0 time=0\n",
      "note_on channel=0 note=81 velocity=0 time=0\n",
      "note_on channel=0 note=79 velocity=124 time=5\n",
      "note_on channel=0 note=79 velocity=124 time=0\n",
      "note_on channel=0 note=79 velocity=124 time=0\n",
      "note_on channel=0 note=79 velocity=124 time=0\n",
      "note_on channel=0 note=79 velocity=124 time=0\n",
      "note_on channel=0 note=79 velocity=0 time=308\n",
      "note_on channel=0 note=79 velocity=0 time=0\n",
      "note_on channel=0 note=79 velocity=0 time=0\n",
      "note_on channel=0 note=79 velocity=0 time=0\n",
      "note_on channel=0 note=79 velocity=0 time=0\n",
      "note_on channel=0 note=78 velocity=124 time=4\n",
      "note_on channel=0 note=78 velocity=124 time=0\n",
      "note_on channel=0 note=78 velocity=124 time=0\n",
      "note_on channel=0 note=78 velocity=124 time=0\n",
      "note_on channel=0 note=78 velocity=124 time=0\n",
      "note_on channel=0 note=78 velocity=0 time=154\n",
      "note_on channel=0 note=78 velocity=0 time=0\n",
      "note_on channel=0 note=78 velocity=0 time=0\n",
      "note_on channel=0 note=78 velocity=0 time=0\n",
      "note_on channel=0 note=78 velocity=0 time=0\n",
      "note_on channel=0 note=76 velocity=124 time=5\n",
      "note_on channel=0 note=76 velocity=124 time=0\n",
      "note_on channel=0 note=76 velocity=124 time=0\n",
      "note_on channel=0 note=76 velocity=124 time=0\n",
      "note_on channel=0 note=76 velocity=124 time=0\n",
      "note_on channel=0 note=76 velocity=124 time=0\n",
      "note_on channel=0 note=76 velocity=124 time=0\n",
      "note_on channel=0 note=69 velocity=0 time=154\n",
      "note_on channel=0 note=69 velocity=0 time=0\n",
      "note_on channel=0 note=72 velocity=0 time=0\n",
      "note_on channel=0 note=72 velocity=0 time=0\n",
      "note_on channel=0 note=76 velocity=0 time=0\n",
      "note_on channel=0 note=76 velocity=0 time=0\n",
      "note_on channel=0 note=76 velocity=0 time=0\n",
      "note_on channel=0 note=76 velocity=0 time=0\n",
      "note_on channel=0 note=76 velocity=0 time=0\n",
      "note_on channel=0 note=76 velocity=0 time=0\n",
      "note_on channel=0 note=76 velocity=0 time=0\n",
      "note_on channel=0 note=67 velocity=100 time=4\n",
      "note_on channel=0 note=67 velocity=100 time=0\n",
      "note_on channel=0 note=71 velocity=124 time=0\n",
      "note_on channel=0 note=71 velocity=124 time=0\n",
      "note_on channel=0 note=71 velocity=124 time=0\n",
      "note_on channel=0 note=71 velocity=124 time=0\n",
      "note_on channel=0 note=71 velocity=124 time=0\n",
      "note_on channel=0 note=71 velocity=124 time=0\n",
      "note_on channel=0 note=71 velocity=124 time=0\n",
      "note_on channel=0 note=74 velocity=100 time=0\n",
      "note_on channel=0 note=74 velocity=100 time=0\n",
      "note_on channel=0 note=71 velocity=0 time=616\n",
      "note_on channel=0 note=71 velocity=0 time=0\n",
      "note_on channel=0 note=71 velocity=0 time=0\n",
      "note_on channel=0 note=71 velocity=0 time=0\n",
      "note_on channel=0 note=71 velocity=0 time=0\n",
      "note_on channel=0 note=79 velocity=124 time=4\n",
      "note_on channel=0 note=79 velocity=124 time=0\n",
      "note_on channel=0 note=79 velocity=124 time=0\n",
      "note_on channel=0 note=79 velocity=124 time=0\n",
      "note_on channel=0 note=79 velocity=124 time=0\n",
      "note_on channel=0 note=67 velocity=0 time=616\n",
      "note_on channel=0 note=67 velocity=0 time=0\n",
      "note_on channel=0 note=71 velocity=0 time=0\n",
      "note_on channel=0 note=71 velocity=0 time=0\n",
      "note_on channel=0 note=74 velocity=0 time=0\n",
      "note_on channel=0 note=74 velocity=0 time=0\n",
      "note_on channel=0 note=79 velocity=0 time=0\n",
      "note_on channel=0 note=79 velocity=0 time=0\n",
      "note_on channel=0 note=79 velocity=0 time=0\n",
      "note_on channel=0 note=79 velocity=0 time=0\n",
      "note_on channel=0 note=79 velocity=0 time=0\n",
      "note_on channel=0 note=60 velocity=100 time=5\n",
      "note_on channel=0 note=60 velocity=100 time=0\n",
      "note_on channel=0 note=64 velocity=100 time=0\n",
      "note_on channel=0 note=64 velocity=100 time=0\n",
      "note_on channel=0 note=67 velocity=100 time=0\n",
      "note_on channel=0 note=67 velocity=100 time=0\n",
      "note_on channel=0 note=76 velocity=124 time=0\n",
      "note_on channel=0 note=76 velocity=124 time=0\n",
      "note_on channel=0 note=76 velocity=124 time=0\n",
      "note_on channel=0 note=76 velocity=124 time=0\n",
      "note_on channel=0 note=76 velocity=124 time=0\n",
      "note_on channel=0 note=76 velocity=0 time=229\n",
      "note_on channel=0 note=76 velocity=0 time=0\n",
      "note_on channel=0 note=76 velocity=0 time=0\n",
      "note_on channel=0 note=76 velocity=0 time=0\n",
      "note_on channel=0 note=76 velocity=0 time=0\n",
      "note_on channel=0 note=79 velocity=124 time=4\n",
      "note_on channel=0 note=79 velocity=124 time=0\n",
      "note_on channel=0 note=79 velocity=124 time=0\n",
      "note_on channel=0 note=79 velocity=124 time=0\n",
      "note_on channel=0 note=79 velocity=124 time=0\n",
      "note_on channel=0 note=79 velocity=0 time=75\n",
      "note_on channel=0 note=79 velocity=0 time=0\n",
      "note_on channel=0 note=79 velocity=0 time=0\n",
      "note_on channel=0 note=79 velocity=0 time=0\n",
      "note_on channel=0 note=79 velocity=0 time=0\n",
      "note_on channel=0 note=76 velocity=124 time=4\n",
      "note_on channel=0 note=76 velocity=124 time=0\n",
      "note_on channel=0 note=76 velocity=124 time=0\n",
      "note_on channel=0 note=76 velocity=124 time=0\n",
      "note_on channel=0 note=76 velocity=124 time=0\n",
      "note_on channel=0 note=76 velocity=0 time=154\n",
      "note_on channel=0 note=76 velocity=0 time=0\n",
      "note_on channel=0 note=76 velocity=0 time=0\n",
      "note_on channel=0 note=76 velocity=0 time=0\n",
      "note_on channel=0 note=76 velocity=0 time=0\n",
      "note_on channel=0 note=74 velocity=124 time=5\n",
      "note_on channel=0 note=74 velocity=124 time=0\n",
      "note_on channel=0 note=74 velocity=124 time=0\n",
      "note_on channel=0 note=74 velocity=124 time=0\n",
      "note_on channel=0 note=74 velocity=124 time=0\n",
      "note_on channel=0 note=74 velocity=0 time=154\n",
      "note_on channel=0 note=74 velocity=0 time=0\n",
      "note_on channel=0 note=74 velocity=0 time=0\n",
      "note_on channel=0 note=74 velocity=0 time=0\n",
      "note_on channel=0 note=74 velocity=0 time=0\n",
      "note_on channel=0 note=71 velocity=124 time=4\n",
      "note_on channel=0 note=71 velocity=124 time=0\n",
      "note_on channel=0 note=71 velocity=124 time=0\n",
      "note_on channel=0 note=71 velocity=124 time=0\n",
      "note_on channel=0 note=71 velocity=124 time=0\n",
      "note_on channel=0 note=71 velocity=0 time=154\n",
      "note_on channel=0 note=71 velocity=0 time=0\n",
      "note_on channel=0 note=71 velocity=0 time=0\n",
      "note_on channel=0 note=71 velocity=0 time=0\n",
      "note_on channel=0 note=71 velocity=0 time=0\n",
      "note_on channel=0 note=74 velocity=124 time=4\n",
      "note_on channel=0 note=74 velocity=124 time=0\n",
      "note_on channel=0 note=74 velocity=124 time=0\n",
      "note_on channel=0 note=74 velocity=124 time=0\n",
      "note_on channel=0 note=74 velocity=124 time=0\n",
      "note_on channel=0 note=74 velocity=0 time=154\n",
      "note_on channel=0 note=74 velocity=0 time=0\n",
      "note_on channel=0 note=74 velocity=0 time=0\n",
      "note_on channel=0 note=74 velocity=0 time=0\n",
      "note_on channel=0 note=74 velocity=0 time=0\n",
      "note_on channel=0 note=76 velocity=124 time=5\n",
      "note_on channel=0 note=76 velocity=124 time=0\n",
      "note_on channel=0 note=76 velocity=124 time=0\n",
      "note_on channel=0 note=76 velocity=124 time=0\n",
      "note_on channel=0 note=76 velocity=124 time=0\n",
      "note_on channel=0 note=76 velocity=0 time=154\n",
      "note_on channel=0 note=76 velocity=0 time=0\n",
      "note_on channel=0 note=76 velocity=0 time=0\n",
      "note_on channel=0 note=76 velocity=0 time=0\n",
      "note_on channel=0 note=76 velocity=0 time=0\n",
      "note_on channel=0 note=79 velocity=124 time=4\n",
      "note_on channel=0 note=79 velocity=124 time=0\n",
      "note_on channel=0 note=79 velocity=124 time=0\n",
      "note_on channel=0 note=79 velocity=124 time=0\n",
      "note_on channel=0 note=79 velocity=124 time=0\n",
      "note_on channel=0 note=60 velocity=0 time=154\n",
      "note_on channel=0 note=60 velocity=0 time=0\n",
      "note_on channel=0 note=64 velocity=0 time=0\n",
      "note_on channel=0 note=64 velocity=0 time=0\n",
      "note_on channel=0 note=67 velocity=0 time=0\n",
      "note_on channel=0 note=67 velocity=0 time=0\n",
      "note_on channel=0 note=79 velocity=0 time=0\n",
      "note_on channel=0 note=79 velocity=0 time=0\n",
      "note_on channel=0 note=79 velocity=0 time=0\n",
      "note_on channel=0 note=79 velocity=0 time=0\n",
      "note_on channel=0 note=79 velocity=0 time=0\n",
      "note_on channel=0 note=62 velocity=100 time=5\n",
      "note_on channel=0 note=62 velocity=100 time=0\n",
      "note_on channel=0 note=66 velocity=100 time=0\n",
      "note_on channel=0 note=66 velocity=100 time=0\n",
      "note_on channel=0 note=69 velocity=100 time=0\n",
      "note_on channel=0 note=69 velocity=100 time=0\n",
      "note_on channel=0 note=74 velocity=124 time=0\n",
      "note_on channel=0 note=74 velocity=124 time=0\n",
      "note_on channel=0 note=74 velocity=124 time=0\n",
      "note_on channel=0 note=74 velocity=124 time=0\n",
      "note_on channel=0 note=74 velocity=124 time=0\n",
      "note_on channel=0 note=62 velocity=0 time=1240\n",
      "note_on channel=0 note=62 velocity=0 time=0\n",
      "note_on channel=0 note=66 velocity=0 time=0\n",
      "note_on channel=0 note=66 velocity=0 time=0\n",
      "note_on channel=0 note=69 velocity=0 time=0\n",
      "note_on channel=0 note=69 velocity=0 time=0\n",
      "note_on channel=0 note=74 velocity=0 time=0\n",
      "note_on channel=0 note=74 velocity=0 time=0\n",
      "note_on channel=0 note=74 velocity=0 time=0\n",
      "note_on channel=0 note=74 velocity=0 time=0\n",
      "note_on channel=0 note=74 velocity=0 time=0\n",
      "note_on channel=0 note=67 velocity=100 time=5\n",
      "note_on channel=0 note=67 velocity=100 time=0\n",
      "note_on channel=0 note=71 velocity=100 time=0\n",
      "note_on channel=0 note=71 velocity=100 time=0\n",
      "note_on channel=0 note=74 velocity=100 time=0\n",
      "note_on channel=0 note=74 velocity=100 time=0\n",
      "note_on channel=0 note=91 velocity=124 time=0\n",
      "note_on channel=0 note=91 velocity=124 time=0\n",
      "note_on channel=0 note=91 velocity=124 time=0\n",
      "note_on channel=0 note=91 velocity=0 time=154\n",
      "note_on channel=0 note=91 velocity=0 time=0\n",
      "note_on channel=0 note=91 velocity=0 time=0\n",
      "note_on channel=0 note=93 velocity=124 time=4\n",
      "note_on channel=0 note=93 velocity=124 time=0\n",
      "note_on channel=0 note=93 velocity=124 time=0\n",
      "note_on channel=0 note=93 velocity=0 time=154\n",
      "note_on channel=0 note=93 velocity=0 time=0\n",
      "note_on channel=0 note=93 velocity=0 time=0\n",
      "note_on channel=0 note=91 velocity=124 time=5\n",
      "note_on channel=0 note=91 velocity=124 time=0\n",
      "note_on channel=0 note=91 velocity=124 time=0\n",
      "note_on channel=0 note=91 velocity=0 time=154\n",
      "note_on channel=0 note=91 velocity=0 time=0\n",
      "note_on channel=0 note=91 velocity=0 time=0\n",
      "note_on channel=0 note=93 velocity=124 time=4\n",
      "note_on channel=0 note=93 velocity=124 time=0\n",
      "note_on channel=0 note=93 velocity=124 time=0\n",
      "note_on channel=0 note=67 velocity=0 time=154\n",
      "note_on channel=0 note=67 velocity=0 time=0\n",
      "note_on channel=0 note=71 velocity=0 time=0\n",
      "note_on channel=0 note=71 velocity=0 time=0\n",
      "note_on channel=0 note=74 velocity=0 time=0\n",
      "note_on channel=0 note=74 velocity=0 time=0\n",
      "note_on channel=0 note=93 velocity=0 time=0\n",
      "note_on channel=0 note=93 velocity=0 time=0\n",
      "note_on channel=0 note=93 velocity=0 time=0\n",
      "note_on channel=0 note=59 velocity=100 time=4\n",
      "note_on channel=0 note=59 velocity=100 time=0\n",
      "note_on channel=0 note=62 velocity=100 time=0\n",
      "note_on channel=0 note=62 velocity=100 time=0\n",
      "note_on channel=0 note=66 velocity=100 time=0\n",
      "note_on channel=0 note=66 velocity=100 time=0\n",
      "note_on channel=0 note=95 velocity=124 time=0\n",
      "note_on channel=0 note=95 velocity=124 time=0\n",
      "note_on channel=0 note=95 velocity=124 time=0\n",
      "note_on channel=0 note=95 velocity=0 time=308\n",
      "note_on channel=0 note=95 velocity=0 time=0\n",
      "note_on channel=0 note=95 velocity=0 time=0\n",
      "note_on channel=0 note=86 velocity=124 time=5\n",
      "note_on channel=0 note=86 velocity=124 time=0\n",
      "note_on channel=0 note=86 velocity=124 time=0\n",
      "note_on channel=0 note=86 velocity=0 time=154\n",
      "note_on channel=0 note=86 velocity=0 time=0\n",
      "note_on channel=0 note=86 velocity=0 time=0\n",
      "note_on channel=0 note=81 velocity=124 time=4\n",
      "note_on channel=0 note=81 velocity=124 time=0\n",
      "note_on channel=0 note=81 velocity=124 time=0\n",
      "note_on channel=0 note=59 velocity=0 time=154\n",
      "note_on channel=0 note=59 velocity=0 time=0\n",
      "note_on channel=0 note=62 velocity=0 time=0\n",
      "note_on channel=0 note=62 velocity=0 time=0\n",
      "note_on channel=0 note=66 velocity=0 time=0\n",
      "note_on channel=0 note=66 velocity=0 time=0\n",
      "note_on channel=0 note=81 velocity=0 time=0\n",
      "note_on channel=0 note=81 velocity=0 time=0\n",
      "note_on channel=0 note=81 velocity=0 time=0\n",
      "note_on channel=0 note=67 velocity=100 time=5\n",
      "note_on channel=0 note=67 velocity=100 time=0\n",
      "note_on channel=0 note=71 velocity=100 time=0\n",
      "note_on channel=0 note=71 velocity=100 time=0\n",
      "note_on channel=0 note=74 velocity=100 time=0\n",
      "note_on channel=0 note=74 velocity=100 time=0\n",
      "note_on channel=0 note=67 velocity=0 time=616\n",
      "note_on channel=0 note=67 velocity=0 time=0\n",
      "note_on channel=0 note=71 velocity=0 time=0\n",
      "note_on channel=0 note=71 velocity=0 time=0\n",
      "note_on channel=0 note=74 velocity=0 time=0\n",
      "note_on channel=0 note=74 velocity=0 time=0\n",
      "note_on channel=0 note=72 velocity=100 time=4\n",
      "note_on channel=0 note=72 velocity=100 time=0\n",
      "note_on channel=0 note=76 velocity=100 time=0\n",
      "note_on channel=0 note=76 velocity=100 time=0\n",
      "note_on channel=0 note=79 velocity=100 time=0\n",
      "note_on channel=0 note=79 velocity=100 time=0\n",
      "note_on channel=0 note=79 velocity=100 time=0\n",
      "note_on channel=0 note=79 velocity=100 time=0\n",
      "note_on channel=0 note=79 velocity=100 time=0\n",
      "note_on channel=0 note=72 velocity=0 time=308\n",
      "note_on channel=0 note=72 velocity=0 time=0\n",
      "note_on channel=0 note=76 velocity=0 time=0\n",
      "note_on channel=0 note=76 velocity=0 time=0\n",
      "note_on channel=0 note=79 velocity=0 time=0\n",
      "note_on channel=0 note=79 velocity=0 time=0\n",
      "note_on channel=0 note=79 velocity=0 time=312\n",
      "note_on channel=0 note=79 velocity=0 time=0\n",
      "note_on channel=0 note=79 velocity=0 time=0\n",
      "note_on channel=0 note=55 velocity=100 time=5\n",
      "note_on channel=0 note=55 velocity=100 time=0\n",
      "note_on channel=0 note=55 velocity=100 time=0\n",
      "note_on channel=0 note=55 velocity=100 time=0\n",
      "note_on channel=0 note=59 velocity=100 time=0\n",
      "note_on channel=0 note=59 velocity=100 time=0\n",
      "note_on channel=0 note=59 velocity=100 time=0\n",
      "note_on channel=0 note=59 velocity=100 time=0\n",
      "note_on channel=0 note=62 velocity=100 time=0\n",
      "note_on channel=0 note=62 velocity=100 time=0\n",
      "note_on channel=0 note=62 velocity=100 time=0\n",
      "note_on channel=0 note=62 velocity=100 time=0\n",
      "note_on channel=0 note=83 velocity=124 time=0\n",
      "note_on channel=0 note=83 velocity=124 time=0\n",
      "note_on channel=0 note=83 velocity=124 time=0\n",
      "note_on channel=0 note=55 velocity=0 time=308\n",
      "note_on channel=0 note=55 velocity=0 time=0\n",
      "note_on channel=0 note=55 velocity=0 time=0\n",
      "note_on channel=0 note=55 velocity=0 time=0\n",
      "note_on channel=0 note=59 velocity=0 time=0\n",
      "note_on channel=0 note=59 velocity=0 time=0\n",
      "note_on channel=0 note=59 velocity=0 time=0\n",
      "note_on channel=0 note=59 velocity=0 time=0\n",
      "note_on channel=0 note=62 velocity=0 time=0\n",
      "note_on channel=0 note=62 velocity=0 time=0\n",
      "note_on channel=0 note=62 velocity=0 time=0\n",
      "note_on channel=0 note=62 velocity=0 time=0\n",
      "note_on channel=0 note=83 velocity=0 time=0\n",
      "note_on channel=0 note=83 velocity=0 time=0\n",
      "note_on channel=0 note=83 velocity=0 time=0\n",
      "note_on channel=0 note=81 velocity=124 time=4\n",
      "note_on channel=0 note=81 velocity=124 time=0\n",
      "note_on channel=0 note=81 velocity=124 time=0\n",
      "note_on channel=0 note=81 velocity=0 time=308\n",
      "note_on channel=0 note=81 velocity=0 time=0\n",
      "note_on channel=0 note=81 velocity=0 time=0\n",
      "note_on channel=0 note=78 velocity=124 time=5\n",
      "note_on channel=0 note=78 velocity=124 time=0\n",
      "note_on channel=0 note=78 velocity=124 time=0\n",
      "note_on channel=0 note=78 velocity=0 time=308\n",
      "note_on channel=0 note=78 velocity=0 time=0\n",
      "note_on channel=0 note=78 velocity=0 time=0\n",
      "note_on channel=0 note=76 velocity=124 time=4\n",
      "note_on channel=0 note=76 velocity=124 time=0\n",
      "note_on channel=0 note=76 velocity=124 time=0\n",
      "note_on channel=0 note=76 velocity=0 time=308\n",
      "note_on channel=0 note=76 velocity=0 time=0\n",
      "note_on channel=0 note=76 velocity=0 time=0\n",
      "note_on channel=0 note=62 velocity=100 time=4\n",
      "note_on channel=0 note=62 velocity=100 time=0\n",
      "note_on channel=0 note=66 velocity=100 time=0\n",
      "note_on channel=0 note=66 velocity=100 time=0\n",
      "note_on channel=0 note=69 velocity=100 time=0\n",
      "note_on channel=0 note=69 velocity=100 time=0\n",
      "note_on channel=0 note=74 velocity=124 time=0\n",
      "note_on channel=0 note=74 velocity=124 time=0\n",
      "note_on channel=0 note=74 velocity=124 time=0\n",
      "note_on channel=0 note=62 velocity=0 time=1241\n",
      "note_on channel=0 note=66 velocity=0 time=0\n",
      "note_on channel=0 note=69 velocity=0 time=0\n",
      "note_on channel=0 note=74 velocity=0 time=0\n",
      "note_on channel=0 note=74 velocity=0 time=0\n",
      "note_on channel=0 note=74 velocity=0 time=0\n",
      "note_on channel=0 note=90 velocity=124 time=313\n",
      "note_on channel=0 note=90 velocity=124 time=0\n",
      "note_on channel=0 note=90 velocity=124 time=0\n",
      "note_on channel=0 note=62 velocity=0 time=308\n",
      "note_on channel=0 note=66 velocity=0 time=0\n",
      "note_on channel=0 note=69 velocity=0 time=0\n",
      "note_on channel=0 note=90 velocity=0 time=0\n",
      "note_on channel=0 note=90 velocity=0 time=0\n",
      "note_on channel=0 note=90 velocity=0 time=0\n",
      "note_on channel=0 note=88 velocity=124 time=4\n",
      "note_on channel=0 note=88 velocity=124 time=0\n",
      "note_on channel=0 note=88 velocity=124 time=0\n",
      "note_on channel=0 note=88 velocity=0 time=308\n",
      "note_on channel=0 note=88 velocity=0 time=0\n",
      "note_on channel=0 note=88 velocity=0 time=0\n",
      "note_on channel=0 note=90 velocity=124 time=4\n",
      "note_on channel=0 note=90 velocity=124 time=0\n",
      "note_on channel=0 note=90 velocity=124 time=0\n",
      "note_on channel=0 note=90 velocity=0 time=308\n",
      "note_on channel=0 note=90 velocity=0 time=0\n",
      "note_on channel=0 note=90 velocity=0 time=0\n",
      "note_on channel=0 note=64 velocity=100 time=5\n",
      "note_on channel=0 note=64 velocity=100 time=0\n",
      "note_on channel=0 note=67 velocity=100 time=0\n",
      "note_on channel=0 note=67 velocity=100 time=0\n",
      "note_on channel=0 note=71 velocity=100 time=0\n",
      "note_on channel=0 note=71 velocity=100 time=0\n",
      "note_on channel=0 note=79 velocity=124 time=0\n",
      "note_on channel=0 note=79 velocity=124 time=0\n",
      "note_on channel=0 note=79 velocity=124 time=0\n",
      "note_on channel=0 note=83 velocity=124 time=0\n",
      "note_on channel=0 note=83 velocity=124 time=0\n",
      "note_on channel=0 note=83 velocity=124 time=0\n",
      "note_on channel=0 note=86 velocity=124 time=0\n",
      "note_on channel=0 note=86 velocity=124 time=0\n",
      "note_on channel=0 note=86 velocity=124 time=0\n",
      "note_on channel=0 note=86 velocity=0 time=308\n",
      "note_on channel=0 note=86 velocity=0 time=0\n",
      "note_on channel=0 note=86 velocity=0 time=0\n",
      "note_on channel=0 note=88 velocity=124 time=158\n",
      "note_on channel=0 note=88 velocity=124 time=0\n",
      "note_on channel=0 note=88 velocity=124 time=0\n",
      "note_on channel=0 note=88 velocity=0 time=154\n",
      "note_on channel=0 note=88 velocity=0 time=0\n",
      "note_on channel=0 note=88 velocity=0 time=0\n",
      "note_on channel=0 note=85 velocity=124 time=5\n",
      "note_on channel=0 note=85 velocity=124 time=0\n",
      "note_on channel=0 note=85 velocity=124 time=0\n",
      "note_on channel=0 note=79 velocity=0 time=308\n",
      "note_on channel=0 note=79 velocity=0 time=0\n",
      "note_on channel=0 note=79 velocity=0 time=0\n",
      "note_on channel=0 note=83 velocity=0 time=0\n",
      "note_on channel=0 note=83 velocity=0 time=0\n",
      "note_on channel=0 note=83 velocity=0 time=0\n",
      "note_on channel=0 note=85 velocity=0 time=0\n",
      "note_on channel=0 note=85 velocity=0 time=0\n",
      "note_on channel=0 note=85 velocity=0 time=0\n",
      "note_on channel=0 note=83 velocity=124 time=4\n",
      "note_on channel=0 note=83 velocity=124 time=0\n",
      "note_on channel=0 note=83 velocity=124 time=0\n",
      "note_on channel=0 note=64 velocity=0 time=308\n",
      "note_on channel=0 note=64 velocity=0 time=0\n",
      "note_on channel=0 note=67 velocity=0 time=0\n",
      "note_on channel=0 note=67 velocity=0 time=0\n",
      "note_on channel=0 note=71 velocity=0 time=0\n",
      "note_on channel=0 note=71 velocity=0 time=0\n",
      "note_on channel=0 note=83 velocity=0 time=0\n",
      "note_on channel=0 note=83 velocity=0 time=0\n",
      "note_on channel=0 note=83 velocity=0 time=0\n",
      "note_on channel=0 note=62 velocity=100 time=4\n",
      "note_on channel=0 note=62 velocity=100 time=0\n",
      "note_on channel=0 note=66 velocity=100 time=0\n",
      "note_on channel=0 note=66 velocity=100 time=0\n",
      "note_on channel=0 note=69 velocity=100 time=0\n",
      "note_on channel=0 note=69 velocity=100 time=0\n",
      "note_on channel=0 note=81 velocity=124 time=0\n",
      "note_on channel=0 note=81 velocity=124 time=0\n",
      "note_on channel=0 note=81 velocity=124 time=0\n",
      "note_on channel=0 note=81 velocity=0 time=154\n",
      "note_on channel=0 note=81 velocity=0 time=0\n",
      "note_on channel=0 note=81 velocity=0 time=0\n",
      "note_on channel=0 note=83 velocity=124 time=5\n",
      "note_on channel=0 note=83 velocity=124 time=0\n",
      "note_on channel=0 note=83 velocity=124 time=0\n",
      "note_on channel=0 note=83 velocity=0 time=154\n",
      "note_on channel=0 note=83 velocity=0 time=0\n",
      "note_on channel=0 note=83 velocity=0 time=0\n",
      "note_on channel=0 note=85 velocity=124 time=4\n",
      "note_on channel=0 note=85 velocity=124 time=0\n",
      "note_on channel=0 note=85 velocity=124 time=0\n",
      "note_on channel=0 note=85 velocity=0 time=154\n",
      "note_on channel=0 note=85 velocity=0 time=0\n",
      "note_on channel=0 note=85 velocity=0 time=0\n",
      "note_on channel=0 note=83 velocity=124 time=5\n",
      "note_on channel=0 note=83 velocity=124 time=0\n",
      "note_on channel=0 note=83 velocity=124 time=0\n",
      "note_on channel=0 note=62 velocity=0 time=154\n",
      "note_on channel=0 note=62 velocity=0 time=0\n",
      "note_on channel=0 note=66 velocity=0 time=0\n",
      "note_on channel=0 note=66 velocity=0 time=0\n",
      "note_on channel=0 note=69 velocity=0 time=0\n",
      "note_on channel=0 note=69 velocity=0 time=0\n",
      "note_on channel=0 note=83 velocity=0 time=0\n",
      "note_on channel=0 note=83 velocity=0 time=0\n",
      "note_on channel=0 note=83 velocity=0 time=0\n",
      "note_on channel=0 note=59 velocity=100 time=4\n",
      "note_on channel=0 note=59 velocity=100 time=0\n",
      "note_on channel=0 note=62 velocity=100 time=0\n",
      "note_on channel=0 note=62 velocity=100 time=0\n",
      "note_on channel=0 note=66 velocity=100 time=0\n",
      "note_on channel=0 note=66 velocity=100 time=0\n",
      "note_on channel=0 note=86 velocity=124 time=0\n",
      "note_on channel=0 note=86 velocity=124 time=0\n",
      "note_on channel=0 note=86 velocity=124 time=0\n",
      "note_on channel=0 note=86 velocity=0 time=308\n",
      "note_on channel=0 note=86 velocity=0 time=0\n",
      "note_on channel=0 note=86 velocity=0 time=0\n",
      "note_on channel=0 note=83 velocity=124 time=158\n",
      "note_on channel=0 note=83 velocity=124 time=0\n",
      "note_on channel=0 note=83 velocity=124 time=0\n",
      "note_on channel=0 note=59 velocity=0 time=154\n",
      "note_on channel=0 note=59 velocity=0 time=0\n",
      "note_on channel=0 note=62 velocity=0 time=0\n",
      "note_on channel=0 note=62 velocity=0 time=0\n",
      "note_on channel=0 note=66 velocity=0 time=0\n",
      "note_on channel=0 note=66 velocity=0 time=0\n",
      "note_on channel=0 note=83 velocity=0 time=0\n",
      "note_on channel=0 note=83 velocity=0 time=0\n",
      "note_on channel=0 note=83 velocity=0 time=0\n",
      "note_on channel=0 note=62 velocity=100 time=5\n",
      "note_on channel=0 note=62 velocity=100 time=0\n",
      "note_on channel=0 note=66 velocity=100 time=0\n",
      "note_on channel=0 note=66 velocity=100 time=0\n",
      "note_on channel=0 note=69 velocity=100 time=0\n",
      "note_on channel=0 note=69 velocity=100 time=0\n",
      "note_on channel=0 note=74 velocity=100 time=0\n",
      "note_on channel=0 note=74 velocity=100 time=0\n",
      "note_on channel=0 note=81 velocity=124 time=0\n",
      "note_on channel=0 note=81 velocity=124 time=0\n",
      "note_on channel=0 note=81 velocity=124 time=0\n",
      "note_on channel=0 note=81 velocity=0 time=154\n",
      "note_on channel=0 note=81 velocity=0 time=0\n",
      "note_on channel=0 note=81 velocity=0 time=0\n",
      "note_on channel=0 note=83 velocity=124 time=4\n",
      "note_on channel=0 note=83 velocity=124 time=0\n",
      "note_on channel=0 note=83 velocity=124 time=0\n",
      "note_on channel=0 note=83 velocity=0 time=154\n",
      "note_on channel=0 note=83 velocity=0 time=0\n",
      "note_on channel=0 note=83 velocity=0 time=0\n",
      "note_on channel=0 note=86 velocity=124 time=5\n",
      "note_on channel=0 note=86 velocity=124 time=0\n",
      "note_on channel=0 note=86 velocity=124 time=0\n",
      "note_on channel=0 note=86 velocity=0 time=154\n",
      "note_on channel=0 note=86 velocity=0 time=0\n",
      "note_on channel=0 note=86 velocity=0 time=0\n",
      "note_on channel=0 note=88 velocity=124 time=4\n",
      "note_on channel=0 note=88 velocity=124 time=0\n",
      "note_on channel=0 note=88 velocity=124 time=0\n",
      "note_on channel=0 note=88 velocity=0 time=154\n",
      "note_on channel=0 note=88 velocity=0 time=0\n",
      "note_on channel=0 note=88 velocity=0 time=0\n",
      "note_on channel=0 note=83 velocity=124 time=4\n",
      "note_on channel=0 note=83 velocity=124 time=0\n",
      "note_on channel=0 note=83 velocity=124 time=0\n",
      "note_on channel=0 note=83 velocity=0 time=154\n",
      "note_on channel=0 note=83 velocity=0 time=0\n",
      "note_on channel=0 note=83 velocity=0 time=0\n",
      "note_on channel=0 note=85 velocity=124 time=5\n",
      "note_on channel=0 note=85 velocity=124 time=0\n",
      "note_on channel=0 note=85 velocity=124 time=0\n",
      "note_on channel=0 note=85 velocity=0 time=154\n",
      "note_on channel=0 note=85 velocity=0 time=0\n",
      "note_on channel=0 note=85 velocity=0 time=0\n",
      "note_on channel=0 note=83 velocity=124 time=4\n",
      "note_on channel=0 note=83 velocity=124 time=0\n",
      "note_on channel=0 note=83 velocity=124 time=0\n",
      "note_on channel=0 note=83 velocity=0 time=154\n",
      "note_on channel=0 note=83 velocity=0 time=0\n",
      "note_on channel=0 note=83 velocity=0 time=0\n",
      "note_on channel=0 note=81 velocity=124 time=5\n",
      "note_on channel=0 note=81 velocity=124 time=0\n",
      "note_on channel=0 note=81 velocity=124 time=0\n",
      "note_on channel=0 note=62 velocity=0 time=154\n",
      "note_on channel=0 note=62 velocity=0 time=0\n",
      "note_on channel=0 note=66 velocity=0 time=0\n",
      "note_on channel=0 note=66 velocity=0 time=0\n",
      "note_on channel=0 note=69 velocity=0 time=0\n",
      "note_on channel=0 note=69 velocity=0 time=0\n",
      "note_on channel=0 note=74 velocity=0 time=0\n",
      "note_on channel=0 note=74 velocity=0 time=0\n",
      "note_on channel=0 note=81 velocity=0 time=0\n",
      "note_on channel=0 note=81 velocity=0 time=0\n",
      "note_on channel=0 note=81 velocity=0 time=0\n",
      "note_on channel=0 note=67 velocity=100 time=4\n",
      "note_on channel=0 note=67 velocity=100 time=0\n",
      "note_on channel=0 note=71 velocity=100 time=0\n",
      "note_on channel=0 note=71 velocity=100 time=0\n",
      "note_on channel=0 note=74 velocity=100 time=0\n",
      "note_on channel=0 note=74 velocity=100 time=0\n",
      "note_on channel=0 note=79 velocity=124 time=0\n",
      "note_on channel=0 note=79 velocity=124 time=0\n",
      "note_on channel=0 note=79 velocity=124 time=0\n",
      "note_on channel=0 note=79 velocity=0 time=928\n",
      "note_on channel=0 note=79 velocity=0 time=0\n",
      "note_on channel=0 note=79 velocity=0 time=0\n",
      "note_on channel=0 note=83 velocity=124 time=5\n",
      "note_on channel=0 note=83 velocity=124 time=0\n",
      "note_on channel=0 note=83 velocity=124 time=0\n",
      "note_on channel=0 note=67 velocity=0 time=308\n",
      "note_on channel=0 note=67 velocity=0 time=0\n",
      "note_on channel=0 note=71 velocity=0 time=0\n",
      "note_on channel=0 note=71 velocity=0 time=0\n",
      "note_on channel=0 note=74 velocity=0 time=0\n",
      "note_on channel=0 note=74 velocity=0 time=0\n",
      "note_on channel=0 note=83 velocity=0 time=0\n",
      "note_on channel=0 note=83 velocity=0 time=0\n",
      "note_on channel=0 note=83 velocity=0 time=0\n",
      "note_on channel=0 note=62 velocity=100 time=4\n",
      "note_on channel=0 note=62 velocity=100 time=0\n",
      "note_on channel=0 note=66 velocity=100 time=0\n",
      "note_on channel=0 note=66 velocity=100 time=0\n",
      "note_on channel=0 note=69 velocity=100 time=0\n",
      "note_on channel=0 note=69 velocity=100 time=0\n",
      "note_on channel=0 note=78 velocity=124 time=0\n",
      "note_on channel=0 note=78 velocity=124 time=0\n",
      "note_on channel=0 note=78 velocity=124 time=0\n",
      "note_on channel=0 note=78 velocity=0 time=308\n",
      "note_on channel=0 note=78 velocity=0 time=0\n",
      "note_on channel=0 note=78 velocity=0 time=0\n",
      "note_on channel=0 note=81 velocity=124 time=5\n",
      "note_on channel=0 note=81 velocity=124 time=0\n",
      "note_on channel=0 note=81 velocity=124 time=0\n",
      "note_on channel=0 note=81 velocity=0 time=308\n",
      "note_on channel=0 note=81 velocity=0 time=0\n",
      "note_on channel=0 note=81 velocity=0 time=0\n",
      "note_on channel=0 note=76 velocity=124 time=4\n",
      "note_on channel=0 note=76 velocity=124 time=0\n",
      "note_on channel=0 note=76 velocity=124 time=0\n",
      "note_on channel=0 note=76 velocity=0 time=308\n",
      "note_on channel=0 note=76 velocity=0 time=0\n",
      "note_on channel=0 note=76 velocity=0 time=0\n",
      "note_on channel=0 note=79 velocity=124 time=4\n",
      "note_on channel=0 note=79 velocity=124 time=0\n",
      "note_on channel=0 note=79 velocity=124 time=0\n",
      "note_on channel=0 note=62 velocity=0 time=308\n",
      "note_on channel=0 note=62 velocity=0 time=0\n",
      "note_on channel=0 note=66 velocity=0 time=0\n",
      "note_on channel=0 note=66 velocity=0 time=0\n",
      "note_on channel=0 note=69 velocity=0 time=0\n",
      "note_on channel=0 note=69 velocity=0 time=0\n",
      "note_on channel=0 note=79 velocity=0 time=0\n",
      "note_on channel=0 note=79 velocity=0 time=0\n",
      "note_on channel=0 note=79 velocity=0 time=0\n",
      "note_on channel=0 note=62 velocity=100 time=5\n",
      "note_on channel=0 note=62 velocity=100 time=0\n",
      "note_on channel=0 note=66 velocity=100 time=0\n",
      "note_on channel=0 note=66 velocity=100 time=0\n",
      "note_on channel=0 note=69 velocity=100 time=0\n",
      "note_on channel=0 note=69 velocity=100 time=0\n",
      "note_on channel=0 note=74 velocity=124 time=0\n",
      "note_on channel=0 note=74 velocity=124 time=0\n",
      "note_on channel=0 note=74 velocity=124 time=0\n",
      "note_on channel=0 note=74 velocity=124 time=0\n",
      "note_on channel=0 note=74 velocity=124 time=0\n",
      "note_on channel=0 note=62 velocity=0 time=2165\n",
      "note_on channel=0 note=62 velocity=0 time=0\n",
      "note_on channel=0 note=66 velocity=0 time=0\n",
      "note_on channel=0 note=66 velocity=0 time=0\n",
      "note_on channel=0 note=69 velocity=0 time=0\n",
      "note_on channel=0 note=69 velocity=0 time=0\n",
      "note_on channel=0 note=74 velocity=0 time=0\n",
      "note_on channel=0 note=74 velocity=0 time=0\n",
      "note_on channel=0 note=74 velocity=0 time=0\n",
      "note_on channel=0 note=74 velocity=0 time=0\n",
      "note_on channel=0 note=74 velocity=0 time=0\n",
      "MetaMessage('end_of_track', time=1)\n"
     ]
    }
   ],
   "source": [
    "mid = mido.MidiFile('./musicDataset/.mid')\n",
    "# message = []\n",
    "for i,track in enumerate(mid.tracks):\n",
    "    # print('track {}: {}'.format(i,track.name))        \n",
    "    for msg in track:\n",
    "        print(msg)"
   ]
  },
  {
   "cell_type": "code",
   "execution_count": null,
   "metadata": {},
   "outputs": [],
   "source": []
  }
 ],
 "metadata": {
  "interpreter": {
   "hash": "e23994e846f66e74e737ab5cf4d4d5879b586e9c98f1a622dbc49488eef84217"
  },
  "kernelspec": {
   "display_name": "Python 3.6.13 64-bit ('MusicGenPytorch': conda)",
   "language": "python",
   "name": "python3"
  },
  "language_info": {
   "codemirror_mode": {
    "name": "ipython",
    "version": 3
   },
   "file_extension": ".py",
   "mimetype": "text/x-python",
   "name": "python",
   "nbconvert_exporter": "python",
   "pygments_lexer": "ipython3",
   "version": "3.6.13"
  },
  "orig_nbformat": 4
 },
 "nbformat": 4,
 "nbformat_minor": 2
}
